<?xml version="1.0" encoding="iso-8859-1"?>
<!-- Generator: Adobe Illustrator 19.0.0, SVG Export Plug-In . SVG Version: 6.00 Build 0)  -->
<svg version="1.1" id="Layer_1" xmlns="http://www.w3.org/2000/svg" xmlns:xlink="http://www.w3.org/1999/xlink" x="0px" y="0px"
	 viewBox="0 0 511.999 511.999" style="enable-background:new 0 0 511.999 511.999;" xml:space="preserve">
<g>
	<g>
		<path d="M289.101,16.615c-1.468-2.311-4.016-3.712-6.755-3.712H178.562c-3.101,0-5.923,1.792-7.242,4.599l-13.423,28.566
			c-1.165,2.478-0.981,5.381,0.487,7.692c1.468,2.311,4.016,3.712,6.755,3.712h49.18v4.756c1.047-1.104,2.194-2.14,3.469-3.065
			c4.32-3.133,9.42-4.789,14.751-4.79c0.211,0,0.419,0.013,0.628,0.019c4.041,0.101,7.953,1.182,11.427,3.081h24.329
			c3.101,0,5.923-1.792,7.242-4.599l13.423-28.566C290.753,21.829,290.569,18.926,289.101,16.615z"/>
	</g>
</g>
<g>
	<g>
		<path d="M249.286,162.542c-3.936-5.231-10.038-7.867-16.121-7.607v-31.793l-18.848-25.969v67.733l-20.774,15.627l-0.134-26.646
			c-0.125-24.84-20.435-45.049-45.275-45.049H96.862h-0.164H45.426c-25.454,0-45.602,21.08-45.425,45.27v147.493
			c0.069,10.523,8.621,19.006,19.128,19.006c0.042,0,0.085-0.001,0.128-0.001c10.565-0.069,19.074-8.691,19.006-19.256v-149.08
			c0-2.151,1.743-3.894,3.894-3.894c2.018,0,3.653,1.636,3.653,3.653c0,35.859,0,323.602,0,324.107
			c0,12.679,10.279,22.958,22.958,22.958s22.958-10.279,22.958-22.958V292.633c0-0.153-0.02-0.3-0.022-0.451h9.958
			c-0.003,0.151-0.022,0.299-0.022,0.451v183.505c0,12.679,10.279,22.958,22.958,22.958c12.679,0,22.542-10.279,22.542-22.958
			c0-245.065,0-308.691,0-323.589c0-2.303,1.867-4.171,4.171-4.171c1.145,0,2.243,0.456,3.052,1.266
			c0.809,0.811,1.262,1.909,1.26,3.054l-0.149,66.119c0.08,15.817,18.171,24.568,30.632,15.194l28.214-21.224v205.62
			c0,5.205,4.219,9.425,9.424,9.425s9.424-4.22,9.424-9.425V198.609l12.332-9.277C253.942,182.98,255.638,170.985,249.286,162.542z"
			/>
	</g>
</g>
<g>
	<g>
		<circle cx="96.943" cy="56.55" r="39.65"/>
	</g>
</g>
<g>
	<g>
		<circle cx="362.566" cy="65.901" r="38.636"/>
	</g>
</g>
<g>
	<g>
		<path d="M460.007,211.339c-7.931-22.039-16.875-41.511-22.045-56.554c-6.961-20.255-17.714-32.468-32.047-36.466
			c-3.284,9.268-16.309,46.019-16.309,46.019l7.924,56.536l15.552-15.157l-3.339-20.27l11.001,27.345l-43.993,42.876
			c-7.372,7.186-7.525,18.989-0.339,26.362c7.185,7.373,18.988,7.526,26.362,0.339l52.704-51.366
			C460.711,225.903,462.482,218.216,460.007,211.339z"/>
	</g>
</g>
<g>
	<g>
		<polygon points="426.304,273.978 413.89,286.075 434.018,313.806 		"/>
	</g>
</g>
<g>
	<g>
		<path d="M349.599,220.523l-45.795-22.458l20.988-34.747l9.288,12.797l1.31-10.706c-7.245-20.443-8.295-23.408-16.637-46.948
			c-7.798,2.353-13.321,7.04-17.561,12.339c-3.603,4.503-6.243,9.368-8.899,14.237l-50.557-69.656
			c-3.039-4.183-8.907-5.072-13.043-2.074c0,0-0.001,0.001-0.002,0.001c-4.166,3.027-5.099,8.872-2.073,13.043l55.331,76.233
			c-6.762,10.923-15.477,24.408-21.055,32.837c-6.2,9.386-2.735,22.144,7.399,27.063l65.02,31.574
			c9.258,4.497,20.415,0.639,24.914-8.625C362.723,236.174,358.86,225.021,349.599,220.523z"/>
	</g>
</g>
<g>
	<g>
		<polygon points="319.424,182.42 316.861,191.319 330.793,198.085 		"/>
	</g>
</g>
<g>
	<g>
		<path d="M333.595,116.856c10.96,30.925,9.183,25.913,16.181,45.66c9.757,0,16.337,0,25.063,0c7-19.754,5.211-14.705,16.181-45.66
			C367.374,116.856,358.917,116.856,333.595,116.856z"/>
	</g>
</g>
<g>
	<g>
		<path d="M510.27,346.502l-25.454-17.609c1.342-3.655,0.843-7.897-1.714-11.204c-3.956-5.116-11.309-6.058-16.426-2.101
			l-32.41,25.06c-31.581-43.512-3.139-4.325-32.714-45.071c-7.115,3.158-15.386,3.385-22.851,0.317l40.781,56.185l-31.71,24.52
			c-5.117,3.956-6.057,11.31-2.101,16.426c2.292,2.965,5.725,4.526,9.202,4.548c0.023,0,0.046,0,0.068,0
			c0.618,0,1.236-0.05,1.851-0.148l10.502,28.701c0.44,1.202,1.427,2.122,2.656,2.477c1.23,0.354,2.555,0.101,3.567-0.682
			l19.33-14.946l-8.456-22.324l13.967,18.063l72.082-55.735c1.012-0.783,1.592-2.003,1.557-3.282
			C511.966,348.416,511.323,347.23,510.27,346.502z"/>
	</g>
</g>
<g>
	<g>
		<path d="M358.142,297.881c-12.695,0-25.072,0-33.532,0c-5.633,0-9.974-5.1-9.012-10.703l4.044-23.538l-17.704-8.597
			l-14.357,74.122c-1.242,6.412,3.701,12.337,10.168,12.337c4.015,0,8.832,0,14.225,0v135.224c0,12.355,10.015,22.37,22.37,22.37
			c12.355,0,22.37-10.016,22.37-22.37V341.502c3.215,0,6.443,0,9.659,0v35.626h0.001l30.623-25.714
			C392.152,344.739,362.053,303.272,358.142,297.881z"/>
	</g>
</g>
<g>
	<g>
		<path d="M393.545,439.036l-9.136-24.967c-9.64-0.012-16.262-9.692-18.034-17.844v80.501c0,12.355,10.015,22.37,22.37,22.37
			s22.37-10.016,22.37-22.37v-27.767C403.472,450.436,396.127,446.093,393.545,439.036z"/>
	</g>
</g>
<g>
</g>
<g>
</g>
<g>
</g>
<g>
</g>
<g>
</g>
<g>
</g>
<g>
</g>
<g>
</g>
<g>
</g>
<g>
</g>
<g>
</g>
<g>
</g>
<g>
</g>
<g>
</g>
<g>
</g>
</svg>
