<svg height="511pt" viewBox="-74 0 511 511.99934" width="511pt" xmlns="http://www.w3.org/2000/svg"><path d="m362.914062 147.726562c0-3.179687-2.835937-5.609374-5.976562-5.125-8.371094 1.285157-27.324219 4.203126-41.941406 6.453126-5.03125.773437-4.367188 6.175781-4.398438 6.277343-13.90625.945313-24.933594 12.554688-24.933594 26.695313v85.414062c0 17.234375-14.019531 31.253906-31.25 31.253906h-21.84375l39.589844-107.605468c3.761719-10.222656-1.476562-21.5625-11.699218-25.320313l-4.675782-1.722656 7.636719-20.75c1.492187-2.40625 1.535156-5.46875.027344-7.925781l-23.292969-37.871094c-2.183594-3.550781-6.832031-4.660156-10.378906-2.476562-3.550782 2.183593-4.660156 6.832031-2.476563 10.382812l11.878907 19.3125-12.339844-4.539062c-3.910156-1.441407-8.246094.5625-9.6875 4.472656-1.4375 3.914062.566406 8.25 4.476562 9.691406l16.417969 6.039062-5.550781 15.09375-4.675782-1.71875c-2.246093-.828124-4.546874-1.21875-6.808593-1.21875-8.03125 0-15.578125 4.945313-18.515625 12.921876l-12.214844 33.207031 21.175781 6.410156c16.75 5.074219 26.21875 22.765625 21.144531 39.515625-5.070312 16.75-22.761718 26.21875-39.515624 21.148438l-24.726563-7.488282-19.679687 53.484375c-1.199219 3.257813.472656 6.871094 3.726562 8.070313l57.867188 21.289062c3.242187 1.191406 6.863281-.457031 8.066406-3.730468l8.675781-23.578126h27.394531c25.554688 0 46.34375-20.792968 46.34375-46.347656v-85.414062c0-5.8125 4.273438-10.632813 9.839844-11.515625v.746093c0 2.5625 1.871094 4.738282 4.398438 5.128907 12.789062 1.964843-26.652344-4.101563 41.941406 6.453125 3.144531.480468 5.976562-1.949219 5.976562-5.128906.003906-10.34375.003906-19.644532.003906-29.984376zm0 0"/><path d="m271.003906 157.644531c2.671875 1.738281 5.023438 3.84375 7.007813 6.226563 4.074219-7.46875 10.429687-13.519532 18.125-17.214844-1.160157-.316406-2.359375-.550781-3.601563-.65625l-16.117187-1.386719c-.597657 2.203125-1.566407 4.320313-2.917969 6.246094zm0 0"/><path d="m137.351562 307.570312 19.433594-52.820312-32.929687-9.972656c-1.449219-.796875-15.671875-2.230469-19.410157-16.667969l-14.796874-57.800781 25.238281 52.8125c2.4375 5.101562 6.910156 8.941406 12.324219 10.582031l69.230468 20.964844c10.636719 3.21875 21.867188-2.792969 25.089844-13.425781 3.222656-10.636719-2.789062-21.871094-13.425781-25.089844l-60.738281-18.394532-21.410157-44.796874 25.28125 33.882812 13.753907 4.164062v-19.472656l20.546874 5.058594 5.632813-15.304688c3.355469-9.121093 10.695313-16.035156 19.597656-19.089843-1.164062-1.050781-2.191406-2.222657-3.066406-3.492188l-11.851563-1.019531-31.539062-7.765625c-2.953125-13.792969-15.207031-24.136719-29.882812-24.136719h-54.503907c-16.882812 0-30.566406 13.683594-30.566406 30.5625v156.816406h.027344l-3.261719 77.984376-43.722656 106.109374c-5.292969 12.84375.832031 27.542969 13.675781 32.835938 12.921875 5.324219 27.578125-.90625 32.835937-13.675781l45.410157-110.210938c1.117187-2.710937 1.75-5.597656 1.875-8.527343 3.726562-89.378907 3.507812-83.21875 3.507812-84.519532h12.007813l28.722656 78.316406 16.167969 118.753907c1.875 13.769531 14.554687 23.40625 28.3125 21.53125 13.765625-1.875 23.40625-14.550781 21.53125-28.316407l-16.535157-121.460937c-.246093-1.796875-.683593-3.5625-1.308593-5.265625l-4.550781-12.40625-35.8125-13.175781c-9.523438-3.5-14.394532-14.042969-10.890626-23.566407zm0 0"/><path d="m159.699219 45.246094c0 24.988281-20.257813 45.242187-45.246094 45.242187-24.984375 0-45.242187-20.253906-45.242187-45.242187 0-24.988282 20.257812-45.246094 45.242187-45.246094 24.988281 0 45.246094 20.257812 45.246094 45.246094zm0 0"/></svg>