<?xml version="1.0" encoding="iso-8859-1"?>
<!-- Generator: Adobe Illustrator 19.0.0, SVG Export Plug-In . SVG Version: 6.00 Build 0)  -->
<svg version="1.1" id="Layer_1" xmlns="http://www.w3.org/2000/svg" xmlns:xlink="http://www.w3.org/1999/xlink" x="0px" y="0px"
	 viewBox="0 0 511.999 511.999" style="enable-background:new 0 0 511.999 511.999;" xml:space="preserve">
<g>
	<g>
		<circle cx="297.583" cy="223.108" r="8.664"/>
	</g>
</g>
<g>
	<g>
		<path d="M240.127,159.493c-5.456-9.867-17.88-13.444-27.75-7.989l-43.751,24.189l-10.146-25.928
			c0.976-3.603,2.056-6.919,1.88-12.086c-9.819-2.434-18.384-8.185-24.387-16.473c-3.153-4.354-5.412-9.163-6.747-14.207
			L85.472,95.157c-16.23-4.394-32.95,5.202-37.344,21.433c-1.893,6.995-27.859,102.92-37.384,138.107
			c-2.245,8.294-2.418,17.058-0.463,25.425c4.191,17.932,12.628,53.806,24.091,101.395l-13.368,103.65
			c-1.68,13.028,7.519,24.953,20.548,26.632c1.032,0.134,2.057,0.198,3.071,0.198c11.781-0.001,22.013-8.751,23.561-20.746
			l13.931-108.017c0.372-2.886,0.211-5.816-0.474-8.645l-22.589-93.213l0.361,0.098c0.358,0.84,0.754,1.67,1.216,2.482l54.75,96.044
			L103.896,485.64c-1.42,13.06,8.015,24.797,21.075,26.217c0.874,0.095,1.741,0.142,2.6,0.142c11.983,0,22.292-9.032,23.616-21.216
			l12.318-113.296c0.541-4.978-0.502-10-2.982-14.35l-40.546-71.129l8.276-30.572l-8.249-1.256
			c-17.964-2.737-29.633-17.109-31.68-26.97l-16.972-81.745l36.164,77.759c2.909,6.25,8.733,10.553,15.44,11.576l80.651,12.287
			c11.103,1.695,21.557-5.923,23.262-17.111c1.699-11.151-5.962-21.564-17.111-23.262c-8.017-1.222-59-8.989-69.828-10.638
			l-32.751-70.418c2.444,2.958,41.119,49.77,43.098,52.165c67.816,10.332,64.362,9.629,68.369,10.881l13.491-7.46
			C242.007,181.788,245.584,169.364,240.127,159.493z"/>
	</g>
</g>
<g>
	<g>
		<path d="M91.74,33.305c-6.503,24.026,7.702,48.776,31.728,55.279c1.607,0.435,3.216,0.77,4.824,1.023
			c0.019-0.127,0.031-0.254,0.051-0.38l11.087-69.341c1.065-6.659,3.684-12.92,7.568-18.315
			C122.979-4.918,98.241,9.285,91.74,33.305z"/>
	</g>
</g>
<g>
	<g>
		<path d="M474.241,267.727h-172.64c25.821-2.331,43.725-25.603,40.402-50.534c-3.222-24.173-25.574-41.8-50.343-38.5
			c-14.287,1.904-26.107,10.388-32.838,21.984l-24.542,3.271c9.378,8.965,13.953,21.959,11.968,34.98
			c-0.027,0.173-0.07,0.34-0.099,0.512c-1.21,7.297-4.369,13.926-8.948,19.327l28.872-3.849
			c7.185,7.114,16.718,11.799,27.196,12.808h-66.904c-8.136,4.606-17.145,6.046-25.711,4.74l-12.819-1.953
			c-2.63,2.199-4.306,5.501-4.306,9.197v220.305c0,6.618,5.365,11.984,11.984,11.984c6.619,0,11.984-5.366,11.984-11.984V326.834
			h254.759v173.182c0,6.618,5.365,11.984,11.984,11.984c6.619,0,11.984-5.366,11.984-11.984V279.71
			C486.225,273.092,480.861,267.727,474.241,267.727z M270.978,226.661c-1.956-14.67,8.388-28.195,23.058-30.151
			c14.872-1.986,28.223,8.606,30.151,23.057c1.96,14.703-8.353,28.191-23.058,30.151
			C286.256,251.704,272.905,241.112,270.978,226.661z"/>
	</g>
</g>
<g>
	<g>
		<path d="M502.783,229.062c-1.436-6.475-7.849-10.56-14.323-9.125l-137.622,30.512c-1.41,0.311-2.405,1.629-2.272,3.105
			c0.144,1.603,1.56,2.787,3.163,2.643l140.402-12.576c0.485-0.047,1.04-0.128,1.529-0.237
			C500.133,241.948,504.219,235.536,502.783,229.062z"/>
	</g>
</g>
<g>
	<g>
		<path d="M451.143,176.312c-4.098-5.231-11.662-6.149-16.893-2.05l-81.232,63.649c-1.008,0.788-1.341,2.209-0.724,3.38
			c0.693,1.319,2.326,1.826,3.645,1.132l91.334-48.04c0.609-0.326,1.258-0.738,1.819-1.178
			C454.324,189.107,455.242,181.543,451.143,176.312z"/>
	</g>
</g>
<g>
	<g>
		<path d="M393.628,134.401c-4.064-1.438-8.523,0.689-9.963,4.753l-30.622,86.497c-0.332,0.935,0.075,1.995,0.986,2.453
			c0.987,0.497,2.188,0.1,2.686-0.886l41.279-81.947c0.137-0.278,0.281-0.607,0.387-0.906
			C399.819,140.3,397.692,135.839,393.628,134.401z"/>
	</g>
</g>
<g>
	<g>
		<path d="M204.103,3.522l-18.091-2.893c-14.374-2.299-27.903,7.49-30.203,21.876l-11.087,69.341
			c-2.297,14.381,7.498,27.903,21.878,30.202l18.091,2.893c2.617,0.418,5.073-1.365,5.49-3.977l8.95-55.977l-24.432-3.907
			l4.794-29.985l24.431,3.906l4.156-25.991C208.497,6.398,206.717,3.939,204.103,3.522z"/>
	</g>
</g>
<g>
</g>
<g>
</g>
<g>
</g>
<g>
</g>
<g>
</g>
<g>
</g>
<g>
</g>
<g>
</g>
<g>
</g>
<g>
</g>
<g>
</g>
<g>
</g>
<g>
</g>
<g>
</g>
<g>
</g>
</svg>
