<?xml version="1.0" encoding="iso-8859-1"?>
<!-- Generator: Adobe Illustrator 19.0.0, SVG Export Plug-In . SVG Version: 6.00 Build 0)  -->
<svg version="1.1" id="Layer_1" xmlns="http://www.w3.org/2000/svg" xmlns:xlink="http://www.w3.org/1999/xlink" x="0px" y="0px"
	 viewBox="0 0 512.001 512.001" style="enable-background:new 0 0 512.001 512.001;" xml:space="preserve">
<g>
	<g>
		<path d="M94.219,213.309c-2.476,10.468,4.003,20.963,14.472,23.439l8.841,2.092v-40.024
			C107.103,196.417,96.686,202.883,94.219,213.309z"/>
	</g>
</g>
<g>
	<g>
		<path d="M203.548,302.106v186.52h0.001c0,12.909,10.465,23.374,23.374,23.374s23.374-10.465,23.374-23.374V308.683
			L203.548,302.106z"/>
	</g>
</g>
<g>
	<g>
		<path d="M260.388,308.862v179.765c0,12.909,10.465,23.374,23.374,23.374s23.374-10.465,23.374-23.374V302.28
			C307.087,302.286,260.437,308.848,260.388,308.862z"/>
	</g>
</g>
<g>
	<g>
		<path d="M224.295,115.131h-20.104c-20.711,0-38.32,13.803-44.091,32.688c12.998,1.828,71.936,10.12,81.407,11.453
			C239.82,154.946,226.024,119.564,224.295,115.131z"/>
	</g>
</g>
<g>
	<g>
		<path d="M215.117,65.229c1.697,20.734,19.05,37.034,40.221,37.034s38.524-16.3,40.221-37.034H215.117z"/>
	</g>
</g>
<g>
	<g>
		<path d="M398.832,213.567h-4.446v38.957h4.446c10.758,0,19.478-8.721,19.478-19.478
			C418.31,222.289,409.59,213.567,398.832,213.567z"/>
	</g>
</g>
<g>
	<g>
		<path d="M307.726,115.131h-21.757c-4.1,10.712-13.191,34.46-16.973,44.34c8.252-1.16,75.097-10.565,82.821-11.652
			C346.046,128.933,328.438,115.131,307.726,115.131z"/>
	</g>
</g>
<g>
	<g>
		<path d="M267.661,144.256l-7.454-13.557l6.627-12.052c0.986-1.795-0.313-3.998-2.364-3.998h-18.188
			c-2.047,0-3.352,2.201-2.364,3.998l6.627,12.052l-7.482,13.607c-0.866,1.577-1.149,3.411-0.799,5.177l2.021,10.18l11.673,1.643
			l10.291-1.448l2.192-10.326C268.822,147.737,268.545,145.864,267.661,144.256z"/>
	</g>
</g>
<g>
	<g>
		<path d="M300.96,42.607h-2.302c-3.913-14.769-15.177-26.536-29.637-31.169v10.05c0,2.595-2.104,4.699-4.699,4.699h-3.637V5.558
			c0-3.069-2.488-5.558-5.558-5.558c-3.07,0-5.558,2.489-5.558,5.558v20.63h-3.637c-2.595,0-4.699-2.104-4.699-4.699v-9.914
			c-14.257,4.726-25.339,16.409-29.214,31.032h-2.725c-3.178,0-5.753,2.575-5.753,5.753c-0.001,3.179,2.574,5.754,5.752,5.754
			c42.055,0,50.049,0,91.667,0c3.177,0,5.753-2.575,5.753-5.753S304.138,42.607,300.96,42.607z"/>
	</g>
</g>
<g>
	<g>
		<path d="M375.084,158.015l-119.126,16.759l-119.126-16.759c-3.156-0.443-5.963,2.012-5.963,5.184v110.664
			c0,2.609,1.922,4.821,4.505,5.184l120.584,16.965l120.584-16.965c2.584-0.363,4.505-2.574,4.505-5.184V163.199
			C381.048,160.011,378.222,157.574,375.084,158.015z"/>
	</g>
</g>
<g>
</g>
<g>
</g>
<g>
</g>
<g>
</g>
<g>
</g>
<g>
</g>
<g>
</g>
<g>
</g>
<g>
</g>
<g>
</g>
<g>
</g>
<g>
</g>
<g>
</g>
<g>
</g>
<g>
</g>
</svg>
