<?xml version="1.0" encoding="iso-8859-1"?>
<!-- Generator: Adobe Illustrator 19.0.0, SVG Export Plug-In . SVG Version: 6.00 Build 0)  -->
<svg version="1.1" id="Layer_1" xmlns="http://www.w3.org/2000/svg" xmlns:xlink="http://www.w3.org/1999/xlink" x="0px" y="0px"
	 viewBox="0 0 511.999 511.999" style="enable-background:new 0 0 511.999 511.999;" xml:space="preserve">
<g>
	<g>
		<circle cx="101.167" cy="47.08" r="41.168"/>
	</g>
</g>
<g>
	<g>
		<path d="M154.59,101.367h-22.187c-2.636,6.886-19.415,50.72-23.409,61.156l5.535-26.074c0.389-1.831,0.107-3.741-0.795-5.382
			l-7.602-13.824l6.758-12.291c0.469-0.853,0.452-1.889-0.043-2.725c-0.495-0.837-1.395-1.352-2.368-1.352H91.93
			c-0.973,0-1.873,0.513-2.368,1.352c-0.495,0.837-0.511,1.874-0.042,2.725l6.758,12.291l-7.63,13.876
			c-0.885,1.609-1.173,3.478-0.816,5.28l4.84,26.124c-4.427-11.354-18.684-49.664-23.165-61.156H47.741
			c-25.791,0-46.878,20.981-47.007,46.771L0,294.068c-0.055,10.969,8.793,19.908,19.765,19.964c0.035,0,0.068,0,0.101,0
			c10.923,0,19.806-8.827,19.861-19.765l0.734-145.931c0.01-2.174,1.778-3.928,3.95-3.922s3.93,1.768,3.93,3.941l0.01,333.894
			c0,13.165,10.672,23.837,23.837,23.837c13.165,0,23.837-10.672,23.837-23.837V291.724h10.291v190.525
			c0,13.165,10.672,23.837,23.837,23.837s23.837-10.672,23.837-23.837c0-315.541-0.423-134.37-0.432-334.519
			c0-2.3,1.864-4.164,4.164-4.165s4.165,1.864,4.165,4.163c0,0.185-0.006,0.375-0.017,0.57l-0.148,145.848
			c-0.012,10.971,8.871,19.874,19.841,19.886c0.008,0,0.014,0,0.022,0c10.959-0.001,19.851-8.88,19.864-19.841l0.148-145.935
			c0-0.039,0-0.078,0-0.116C201.468,122.348,180.381,101.367,154.59,101.367z"/>
	</g>
</g>
<g>
	<g>
		<path d="M502.932,266.92h-40.23l-6.187-35.152c-0.434-2.467-2.578-4.266-5.083-4.266h-20.548c-2.505,0-4.649,1.799-5.083,4.266
			l-6.187,35.152H308.547l-6.187-35.152c-0.434-2.467-2.578-4.266-5.083-4.266h-20.549c-2.505,0-4.649,1.799-5.083,4.266
			l-6.187,35.152h-40.232c-5.008,0-9.068,4.06-9.068,9.068v75.944c0,5.008,4.06,9.068,9.068,9.068h18.569v139.926
			c0,2.85,2.311,5.161,5.161,5.161h17.527c2.85,0,5.161-2.311,5.161-5.161V360.999h184.869v139.926c0,2.85,2.311,5.161,5.161,5.161
			h17.528c2.85,0,5.161-2.311,5.161-5.161V360.999h18.568c5.008,0,9.068-4.06,9.068-9.068v-75.944
			C512,270.98,507.941,266.92,502.932,266.92z M252.652,342.863h-18.356v-22.247l28.359-35.561h36.097L252.652,342.863z
			 M289.677,342.863l46.1-57.808h36.097l-46.1,57.808H289.677z M362.8,342.863l46.1-57.808h36.097l-46.099,57.808H362.8z
			 M493.865,315.471l-21.844,27.392h-36.097l46.1-57.808h11.841V315.471z"/>
	</g>
</g>
<g>
</g>
<g>
</g>
<g>
</g>
<g>
</g>
<g>
</g>
<g>
</g>
<g>
</g>
<g>
</g>
<g>
</g>
<g>
</g>
<g>
</g>
<g>
</g>
<g>
</g>
<g>
</g>
<g>
</g>
</svg>
