<svg id="Capa_1" enable-background="new 0 0 512.285 512.285" height="512" viewBox="0 0 512.285 512.285" width="512" xmlns="http://www.w3.org/2000/svg"><g><path d="m52.783 345.907c11.05 0 15.81-4.42 23.68-11.74 8.97-8.34 21.26-19.77 44.1-19.77 22.85 0 35.14 11.43 44.11 19.77 2.79 2.59 5.18 4.83 7.61 6.62v-208.55h-172.28v184.01c13.66 3.57 22.33 11.62 29.1 17.92 7.88 7.32 12.63 11.74 23.68 11.74z"/><path d="m202.283 224.847h107.72v38.85h-107.72z"/><path d="m202.283 342.247c3.19-1.99 6.15-4.73 9.75-8.08 8.97-8.34 21.26-19.77 44.1-19.77s35.13 11.43 44.1 19.77c3.61 3.36 6.57 6.1 9.77 8.09v-48.56h-107.72z"/><path d="m202.283 132.237h107.72v62.61h-107.72z"/><path d="m459.495 453.372c-22.842 0-35.132-11.423-44.106-19.764-7.876-7.32-12.63-11.738-23.684-11.738-11.053 0-15.806 4.418-23.682 11.738-8.974 8.341-21.265 19.764-44.105 19.764s-35.131-11.423-44.104-19.765c-7.875-7.319-12.629-11.737-23.68-11.737s-15.805 4.418-23.68 11.738c-8.973 8.341-21.263 19.764-44.103 19.764s-35.13-11.423-44.104-19.764c-7.875-7.32-12.629-11.738-23.681-11.738s-15.806 4.418-23.681 11.738c-8.974 8.341-21.264 19.764-44.105 19.764-22.84 0-35.13-11.423-44.103-19.764-3.197-2.972-5.882-5.455-8.68-7.369v63.349h512.285v-63.351c-2.8 1.914-5.485 4.398-8.684 7.371-8.971 8.341-21.261 19.764-44.103 19.764z"/><path d="m503.602 356.138c-8.975 8.341-21.265 19.764-44.107 19.764s-35.132-11.423-44.106-19.764c-7.876-7.32-12.63-11.738-23.684-11.738-11.053 0-15.806 4.418-23.682 11.738-8.974 8.341-21.265 19.764-44.105 19.764s-35.131-11.423-44.104-19.765c-7.875-7.319-12.629-11.737-23.68-11.737s-15.805 4.418-23.68 11.738c-8.973 8.341-21.263 19.764-44.103 19.764s-35.13-11.423-44.104-19.764c-7.875-7.32-12.629-11.738-23.681-11.738s-15.806 4.418-23.681 11.738c-8.974 8.341-21.264 19.764-44.105 19.764-22.84 0-35.13-11.423-44.103-19.764-3.198-2.973-5.881-5.466-8.68-7.38v44.961c13.664 3.57 22.33 11.62 29.104 17.915 7.875 7.319 12.628 11.737 23.679 11.737 11.052 0 15.806-4.418 23.681-11.738 8.974-8.341 21.264-19.764 44.104-19.764s35.131 11.423 44.105 19.765c7.875 7.319 12.629 11.737 23.68 11.737s15.804-4.418 23.679-11.737c8.974-8.341 21.263-19.765 44.103-19.765s35.13 11.423 44.104 19.764c7.875 7.32 12.629 11.738 23.681 11.738 11.053 0 15.806-4.418 23.682-11.738 8.974-8.341 21.265-19.764 44.105-19.764 22.842 0 35.133 11.423 44.107 19.764 7.876 7.32 12.63 11.738 23.683 11.738s15.807-4.418 23.683-11.738c6.774-6.296 15.442-14.345 29.107-17.915v-44.962c-2.8 1.914-5.483 4.409-8.682 7.382z"/><path d="m202.283 106.557c0-29.7 24.16-53.86 53.86-53.86s53.86 24.16 53.86 53.86v25.68h30v-25.68c0-29.7 24.16-53.86 53.85-53.86 29.7 0 53.86 24.16 53.86 53.86v25.68h-107.71v208.54c2.42-1.79 4.81-4.02 7.6-6.61 8.97-8.34 21.26-19.77 44.1-19.77s35.14 11.43 44.11 19.77c7.88 7.32 12.63 11.74 23.68 11.74 11.06 0 15.81-4.42 23.69-11.74 6.77-6.3 15.44-14.35 29.1-17.92v-184.01h-34.57v-25.68c0-46.24-37.62-83.86-83.86-83.86-28.48 0-53.69 14.28-68.85 36.05-15.16-21.77-40.37-36.05-68.86-36.05-46.24 0-83.86 37.62-83.86 83.86v25.68h30v-25.68z"/></g></svg>