<svg id="Capa_1" enable-background="new 0 0 512 512" height="512" viewBox="0 0 512 512" width="512" xmlns="http://www.w3.org/2000/svg"><g><path d="m204.431.019h-116.275v70.904l116.275-19.379z"/><path d="m460.412 481.981v-335.687h-189.412v335.687h-30v-365.687-40.43l-189.412 31.568v374.549h-51.588v30h512v-30zm-74.07-292.55h31.865v30h-31.865zm0 73.138h31.865v30h-31.865zm0 73.137h31.865v30h-31.865zm0 73.138h31.865v30h-31.865zm-73.137-219.413h31.865v30h-31.865zm0 73.138h31.865v30h-31.865zm0 73.137h31.865v30h-31.865zm0 73.138h31.865v30h-31.865zm-146.275-292.55h31.865v30h-31.865zm0 73.137h31.865v30h-31.865zm0 73.138h31.865v30h-31.865zm0 73.137h31.865v30h-31.865zm-73.137-146.275h31.865v30h-31.865zm0 73.138h31.865v30h-31.865zm0 73.137h31.865v30h-31.865zm.932 73.138h103.138v73.137h-30v-43.137h-43.138v43.137h-30z"/></g></svg>