<svg id="Capa_1" enable-background="new 0 0 512 512" height="512" viewBox="0 0 512 512" width="512" xmlns="http://www.w3.org/2000/svg"><g><path d="m154.998 279.4h202.005v-202.028l-202.005-.006zm85.987-156.546h30v40.515h40.515v30h-40.515v40.514h-30v-40.514h-40.514v-30h40.514z"/><path d="m.327 434.07h124.67v-279.37h-124.67zm45.488-232.035h33.694v30h-33.694zm0 77.335h33.694v30h-33.694zm0 77.335h33.694v30h-33.694z"/><path d="m395.67 17.5v-17.44h-279.34v17.424l29.881 29.881 219.586.008z"/><path d="m357.002 434.07v-124.67h-202.004v124.67h47.335v-77.335h107.305v77.335z"/><path d="m232.333 386.735h47.305v47.305h-47.305z"/><path d="m511.673 154.7h-124.67v279.37h124.67zm-45.488 232.005h-33.694v-30h33.694zm0-77.335h-33.694v-30h33.694zm0-77.335h-33.694v-30h33.694z"/><path d="m0 464.07h512v47.869h-512z"/></g></svg>