<svg id="Capa_1" enable-background="new 0 0 512 512" height="512" viewBox="0 0 512 512" width="512" xmlns="http://www.w3.org/2000/svg"><g><path d="m137.714 275.429h236.572v-107.715h-236.572zm137.715-68.858h30v30h-30zm-68.858 0h30v30h-30z"/><path d="m137.714 137.714h236.572v-107.714h19.428v-30h-275.428v30h19.428zm137.715-68.857h30v30h-30zm-68.858 0h30v30h-30z"/><path d="m512 393.714v-34.429c0-27.255-22.174-49.429-49.429-49.429s-49.429 22.174-49.429 49.429v34.429c0 22.027 14.486 40.728 34.429 47.095v41.191h-73.285v-176.571h-236.572v176.571h-73.285v-41.191c19.943-6.367 34.429-25.068 34.429-47.095v-34.429c0-27.255-22.174-49.429-49.429-49.429s-49.429 22.175-49.429 49.43v34.429c0 22.027 14.486 40.728 34.429 47.095v41.19h-34.429v30h512v-30h-34.429v-41.191c19.943-6.366 34.429-25.068 34.429-47.095zm-236.571-49.428h30v30h-30zm-68.858 0h30v30h-30zm68.858 137.714v-38.857h-38.857v38.857h-30v-68.857h98.857v68.857z"/></g></svg>