<svg id="Capa_1" enable-background="new 0 0 512.021 512.021" height="512" viewBox="0 0 512.021 512.021" width="512" xmlns="http://www.w3.org/2000/svg"><g><path d="m167.725 462.893h176.572v49.118h-176.572z"/><path d="m167.725 385.296h176.572v47.597h-176.572z"/><path d="m512.021 206.582v-52.965l-256.011-153.606-256.01 153.606v52.965zm-339.868-68.857h167.714v30h-167.714z"/><path d="m167.725 305.439h176.572v49.857h-176.572z"/><path d="m0 512.01h137.725v-236.571h236.572v236.571h137.713v-275.428h-512.01zm413.153-236.571h30v30h-30zm0 68.857h30v30h-30zm0 68.858h30v30h-30zm-344.286-137.715h30v30h-30zm0 68.857h30v30h-30zm0 68.858h30v30h-30z"/></g></svg>