<svg id="Capa_1" enable-background="new 0 0 512.173 512.173" height="512" viewBox="0 0 512.173 512.173" width="512" xmlns="http://www.w3.org/2000/svg"><g><path d="m154.959 236.798h202.254v47.417h-202.254z"/><path d="m124.959 159.38h-124.835v279.671h124.835zm-45.552 232.253h-33.73v-30h33.729v30zm0-77.418h-33.73v-30h33.729v30zm-33.73-77.417v-30h33.729v30z"/><path d="m309.795 15.48v191.318h47.418v-105.671c0-36.042-18.956-67.734-47.418-85.647z"/><path d="m232.377 2.814v203.984h47.418v-203.984c-7.607-1.835-15.545-2.814-23.709-2.814s-16.101.979-23.709 2.814z"/><path d="m357.213 439.051v-124.836h-202.254v124.836h47.418v-77.418h107.418v77.418z"/><path d="m154.959 206.798h47.418v-191.318c-28.462 17.912-47.418 49.605-47.418 85.647z"/><path d="m.086 469.051h512v43.122h-512z"/><path d="m512.048 159.38h-124.835v279.671h124.835zm-45.552 232.253h-33.729v-30h33.729zm0-77.418h-33.729v-30h33.729zm0-77.417h-33.729v-30h33.729z"/><path d="m232.377 391.633h47.418v47.418h-47.418z"/></g></svg>