<?xml version="1.0" encoding="iso-8859-1"?>
<!-- Generator: Adobe Illustrator 19.0.0, SVG Export Plug-In . SVG Version: 6.00 Build 0)  -->
<svg version="1.1" id="Layer_1" xmlns="http://www.w3.org/2000/svg" xmlns:xlink="http://www.w3.org/1999/xlink" x="0px" y="0px"
	 viewBox="0 0 512 512" style="enable-background:new 0 0 512 512;" xml:space="preserve">
<g>
	<g>
		<path d="M326.518,181.548c-1.891-4.593-7.15-6.783-11.743-4.89l-13.29,5.475c3.721,4.748,5.913,10.685,5.956,17.003l14.186-5.845
			C326.221,191.398,328.409,186.141,326.518,181.548z"/>
	</g>
</g>
<g>
	<g>
		<circle cx="198.103" cy="82.702" r="36.019"/>
	</g>
</g>
<g>
	<g>
		<path d="M511.776,459.159l-7.567-23.834c3.22-1.66,5.425-5.01,5.425-8.882c0-5.52-4.476-9.995-9.995-9.995h-32.572v-23.589
			c0-5.52-4.476-9.995-9.995-9.995h-67.145c-0.972-5.144-5.483-9.036-10.91-9.036h-1.932l-49.166-130.2
			c-2.167-5.74-8.578-8.636-14.318-6.469l-15.281,5.77l-7.014-18.272c-7.311,3.414-13.038,2.72-18.527,1.936l8.823,22.982
			c-4.167,2.815-6.026,8.208-4.172,13.118l28.883,76.488l-20.192,34.646h-67.752l-0.452-94.3l5.784,1.348l22.519,66.921
			c3.451,10.256,14.563,15.765,24.808,12.315c10.251-3.45,15.765-14.556,12.315-24.807l-26.001-77.268
			c-2.165-6.433-7.505-11.286-14.115-12.827l-36.533-8.516l0.307-19.489c-4.426-0.632-8.178-2.062-11.07-6.323l-24.063-35.759
			l32.095,27.376c2.352,2.005,5.225,3.304,8.285,3.739l64.963,9.273c8.909,1.274,17.188-4.915,18.463-13.85
			c1.274-8.923-4.928-17.189-13.85-18.463l-60.28-8.605l-34.552-29.471l20.971,10.97c0.26-16.425-12.572-28.111-27.123-28.215
			l-25.139-0.18c-15.197-0.108-27.567,12.214-27.526,27.404l0.254,92.693c0.02,7.271,2.936,14.233,8.103,19.348
			c3.644,3.607,8.199,6.08,13.117,7.208h-27.354L99.006,155.862c-1.439-7.321-8.541-12.088-15.862-10.65
			c-7.321,1.439-12.089,8.541-10.65,15.862l9.253,47.073C40.011,228.767,8.187,283.771,0.208,351.68
			c-2.087,17.76,11.782,33.478,29.809,33.478h39.307v35.611c0,6.136,4.974,11.109,11.109,11.109h20.396
			c0.157-26.412,21.685-47.85,48.132-47.85s47.975,21.439,48.133,47.85h59.649c0.158-26.412,21.684-47.85,48.131-47.85
			s47.975,21.439,48.131,47.85h26.012c6.136,0,11.109-4.974,11.109-11.109v-17.915h56.949v13.594h-32.571
			c-5.519,0-9.995,4.474-9.995,9.995c0,3.656,1.97,6.844,4.898,8.586l-7.661,24.13c-0.968,3.048,1.312,6.158,4.506,6.158h75.993
			v-19.49l5.946,19.49h19.075C510.468,465.317,512.742,462.203,511.776,459.159z M97.21,363.041H53.568
			c-4.14,0-7.495-3.356-7.495-7.495c0-4.139,3.356-7.495,7.495-7.495h43.641c4.14,0,7.495,3.356,7.495,7.495
			C104.705,359.685,101.351,363.041,97.21,363.041z M97.21,339.066H53.568c-4.14,0-7.495-3.356-7.495-7.495
			c0-4.139,3.356-7.495,7.495-7.495h43.641c4.14,0,7.495,3.356,7.495,7.495C104.705,335.71,101.351,339.066,97.21,339.066z
			 M97.21,315.091H53.568c-4.14,0-7.495-3.356-7.495-7.495s3.356-7.495,7.495-7.495h43.641c4.14,0,7.495,3.356,7.495,7.495
			S101.351,315.091,97.21,315.091z"/>
	</g>
</g>
<g>
	<g>
		<path d="M148.962,399.021c-18.277,0-33.147,14.87-33.147,33.147c0,18.279,14.87,33.148,33.147,33.148
			c18.277,0,33.147-14.87,33.147-33.148C182.11,413.891,167.24,399.021,148.962,399.021z M148.962,445.494
			c-7.36,0-13.326-5.966-13.326-13.326s5.966-13.326,13.326-13.326c7.36,0,13.326,5.966,13.326,13.326
			S156.322,445.494,148.962,445.494z"/>
	</g>
</g>
<g>
	<g>
		<path d="M304.874,399.021c-18.277,0-33.149,14.87-33.149,33.147c0,18.279,14.871,33.148,33.149,33.148s33.149-14.87,33.149-33.148
			C338.023,413.891,323.153,399.021,304.874,399.021z M304.874,445.494c-7.36,0-13.326-5.966-13.326-13.326
			s5.966-13.326,13.326-13.326s13.326,5.966,13.326,13.326S312.234,445.494,304.874,445.494z"/>
	</g>
</g>
<g>
</g>
<g>
</g>
<g>
</g>
<g>
</g>
<g>
</g>
<g>
</g>
<g>
</g>
<g>
</g>
<g>
</g>
<g>
</g>
<g>
</g>
<g>
</g>
<g>
</g>
<g>
</g>
<g>
</g>
</svg>
