<?xml version="1.0" encoding="iso-8859-1"?>
<!-- Generator: Adobe Illustrator 19.0.0, SVG Export Plug-In . SVG Version: 6.00 Build 0)  -->
<svg version="1.1" id="Layer_1" xmlns="http://www.w3.org/2000/svg" xmlns:xlink="http://www.w3.org/1999/xlink" x="0px" y="0px"
	 viewBox="0 0 512 512" style="enable-background:new 0 0 512 512;" xml:space="preserve">
<g>
	<g>
		<circle cx="75.771" cy="76.406" r="38.053"/>
	</g>
</g>
<g>
	<g>
		<path d="M511.609,449.108l-17.649-88.124c18.953-90.353,17.758-84.433,17.92-85.914c0,0-22.081-118.606-24.17-129.472
			c-2.577-13.409-15.268-22.401-28.773-20.387l-35.982,5.367c-14.321,2.136-23.99,15.781-21.257,30.001l4.302,22.38l-0.62,47.397
			l-46.308,36.406c-7.972,6.267-9.354,17.811-3.087,25.782c6.268,7.972,17.808,9.354,25.782,3.087l52.842-41.542
			c4.154-3.266,6.7-8.163,6.986-13.438l3.419-62.92l13.315,63.83c1.722,8.257-1.54,16.396-7.739,21.289
			c-6.34,4.978-2.74,2.147-27.802,21.852l-22.14,72.304c-0.341,1.113-0.582,2.253-0.725,3.407l-11.101,90.638
			c-1.336,10.91,6.425,20.141,17.334,21.477c10.938,1.333,20.839-5.752,22.173-16.638l10.888-88.903l26.015-84.958l4.775-0.712
			l-15.836,75.491c-0.553,2.634-0.565,5.353-0.037,7.993l18.45,92.123c2.157,10.771,12.635,17.762,23.421,15.605
			C506.78,470.369,513.766,459.884,511.609,449.108z"/>
	</g>
</g>
<g>
	<g>
		<circle cx="419.671" cy="81.535" r="37.708"/>
	</g>
</g>
<g>
	<g>
		<path d="M348.61,443.48c2.824-1.774,4.707-4.907,4.707-8.488c0-5.538-4.489-10.026-10.026-10.026h-36.326l65.871-108.734
			c-7.102,0.485-14.27-1.196-20.468-4.908l-68.846,113.644h-25.636c-6.616,0-11.491,6.337-9.628,12.805
			c5.264,4.171,8.768,10.795,8.768,18.051v11.957c0,1.875-0.25,2.998-0.676,4.745h70.116v-18.86l5.964,18.86h19.608
			c2.974,0,5.091-2.205,4.192-5.038L348.61,443.48z"/>
	</g>
</g>
<g>
	<g>
		<path d="M239.771,455.823c0-2.407-1.5-4.561-3.757-5.395l-67.909-25.101V251.453c7.729-1.146,14.164-7.165,15.445-15.291
			c1.579-10.017-5.262-19.417-15.278-20.996l-58.186-9.173l-29.249-46.224l32.102,29.707l12.636,1.993l-1.377-35.504
			c0-14.197-11.509-25.706-25.706-25.706H52.651c-14.197,0-25.706,11.509-25.706,25.706l-19.916,168.9
			c-0.795,5.776,3.7,10.922,9.523,10.922h10.266l-0.097,34.182L1.221,443.532c-3.985,11.496,2.106,25.009,13.603,28.994
			c11.521,3.989,24.055-3.086,28.034-14.563l26.703-77.038c0.797-2.301,1.208-4.718,1.214-7.154l0.107-37.984h14.498l14.96,117.737
			c1.704,13.418,15.131,23.193,28.477,19.002c-0.504-2.888-0.367-0.088-0.367-55.476c0-6.587,3.752-12.615,9.703-15.514
			l-8.354-65.749c2.289,0,6.232,0.416,9.468-3.234c1.824-2.056,2.681-4.795,2.352-7.526l-7.339-61.08
			c-17.831-2.811-30.452-4.801-47.773-7.531c-8.332-1.313-14.791-7.272-17.172-14.802l-19.342-61.602l-0.19-0.605l33.694,53.246
			c2.824,4.465,7.436,7.496,12.655,8.319l49.551,7.943v217.763c0,3.176,2.575,5.848,5.752,5.848h82.563
			c3.176,0,5.752-1.569,5.752-4.745v-11.959H239.771z"/>
	</g>
</g>
<g>
</g>
<g>
</g>
<g>
</g>
<g>
</g>
<g>
</g>
<g>
</g>
<g>
</g>
<g>
</g>
<g>
</g>
<g>
</g>
<g>
</g>
<g>
</g>
<g>
</g>
<g>
</g>
<g>
</g>
</svg>
