<?xml version="1.0" encoding="iso-8859-1"?>
<!-- Generator: Adobe Illustrator 19.0.0, SVG Export Plug-In . SVG Version: 6.00 Build 0)  -->
<svg version="1.1" id="Layer_1" xmlns="http://www.w3.org/2000/svg" xmlns:xlink="http://www.w3.org/1999/xlink" x="0px" y="0px"
	 viewBox="0 0 512.001 512.001" style="enable-background:new 0 0 512.001 512.001;" xml:space="preserve">
<g>
	<g>
		<path d="M268.719,349.789c-14.663,0-25.886-13.396-23.063-27.969c1.566-8.086,11.087-57.241,12.667-65.397
			c-1.023,0.292-51.302-0.156-51.302-0.156L156.558,92.795c-1.823-5.909-8.093-9.218-14.001-7.395
			c-5.909,1.824-9.219,8.093-7.395,14.001l48.424,156.867h-36.792c-7.756,0-14.043,6.287-14.043,14.043v158.965H97.517
			c0.675-0.975,1.157-2.103,1.377-3.333l15.791-88.164c0.443-2.478-0.233-5.025-1.849-6.955c-1.616-1.93-4.004-3.046-6.521-3.046
			H21.387c-2.517,0-4.905,1.115-6.521,3.046c-1.616,1.93-2.292,4.478-1.849,6.955l15.791,88.164
			c0.221,1.231,0.702,2.357,1.377,3.333H18.171C8.136,429.276,0,437.41,0,447.446v14.661v11.197c0,6.184,5.013,11.197,11.197,11.197
			h12.484c-0.001-0.14-0.01-0.277-0.01-0.417c0-3.72,0.469-7.331,1.345-10.78c4.817-18.977,22.041-33.061,42.496-33.061
			s37.679,14.082,42.496,33.061c0.876,3.451,1.345,7.062,1.345,10.78c0,0.14-0.009,0.277-0.01,0.417h46.7
			c-0.001-0.14-0.01-0.277-0.01-0.417c0-3.72,0.469-7.331,1.345-10.78c4.817-18.977,22.041-33.061,42.496-33.061
			s37.679,14.082,42.496,33.061c0.876,3.451,1.345,7.062,1.345,10.78c0,0.14-0.009,0.277-0.01,0.417h14.718
			c6.184,0,11.197-5.013,11.197-11.197V349.789H268.719z"/>
	</g>
</g>
<g>
	<g>
		<path d="M201.872,455.137c-15.369,0-27.827,12.459-27.827,27.827s12.459,27.827,27.827,27.827
			c15.369,0,27.827-12.459,27.827-27.827S217.241,455.137,201.872,455.137z M201.872,492.878c-5.474,0-9.912-4.438-9.912-9.912
			c0-5.474,4.438-9.912,9.912-9.912c5.475,0,9.912,4.438,9.912,9.912C211.785,488.439,207.346,492.878,201.872,492.878z"/>
	</g>
</g>
<g>
	<g>
		<path d="M67.512,455.137c-15.369,0-27.827,12.459-27.827,27.827s12.459,27.827,27.827,27.827s27.827-12.459,27.827-27.827
			S82.88,455.137,67.512,455.137z M67.512,492.878c-5.474,0-9.912-4.438-9.912-9.912c0-5.474,4.438-9.912,9.912-9.912
			c5.475,0,9.912,4.438,9.912,9.912C77.424,488.439,72.986,492.878,67.512,492.878z"/>
	</g>
</g>
<g>
	<g>
		<path d="M511.944,443.387c-0.019-18.159-12.388-33.414-29.152-37.844l-0.216-207.237l5.808-2.419
			c10.255-4.272,15.105-16.047,10.834-26.302c-2.959-7.104-9.522-11.609-16.684-12.29l-0.13-124.425
			c-0.006-5.563-4.516-10.067-10.077-10.067c-0.003,0-0.007,0-0.01,0c-5.566,0.006-10.073,4.522-10.067,10.087l0.135,130.245
			l-28.956,12.061c-5.647-14.047-10.601-25.177-14.523-36.589c-7.51-21.855-19.114-35.032-34.579-39.346
			c-8.801,24.838-11.961,33.755-17.596,49.654L387.22,278.31c0.483,3.047-0.395,6.151-2.399,8.497
			c-2.004,2.346-4.937,3.706-8.021,3.703c-25.112-0.029-46.547-0.105-79.1-0.105c-6.078,0-10.761-5.503-9.723-11.548l4.365-25.399
			l-19.103-9.276l-15.491,79.978c-1.34,6.918,3.993,13.312,10.971,13.312c4.332,0,9.53,0,15.348,0v149.267
			c0,13.331,10.807,24.138,24.138,24.138s24.138-10.807,24.138-24.138V337.473c3.47,0,6.952,0,10.422,0V486.74
			c0,13.23,10.731,24.138,24.138,24.138c13.331,0,24.138-10.807,24.138-24.138c0-7.437,0-143.914,0-149.267
			c5.818,0,11.019,0,15.349,0c7.014,0,12.309-6.401,10.971-13.312l-28.921-152.655c0.923,2.258,10.544,25.542,14.68,37.035
			c3.836,10.66,15.935,16.226,26.661,11.757l32.655-13.602l0.207,198.867c-16.754,4.465-29.09,19.747-29.071,37.904l0.003,2.977
			l78.377-0.068L511.944,443.387z"/>
	</g>
</g>
<g>
	<g>
		<path d="M511.964,462.053l-78.377,0.068l0.037,35.092c0.008,7.627,17.56,13.791,39.203,13.769
			c21.643-0.022,39.182-6.223,39.174-13.85L511.964,462.053z"/>
	</g>
</g>
<g>
	<g>
		<circle cx="337.547" cy="42.705" r="41.685"/>
	</g>
</g>
<g>
	<g>
		<path d="M306.295,97.683c3.453,9.743,13.596,38.364,17.46,49.267c10.527,0,17.626,0,27.042,0
			c3.879-10.945,14.089-39.755,17.459-49.267C342.817,97.683,333.518,97.683,306.295,97.683z"/>
	</g>
</g>
<g>
	<g>
		<path d="M323.563,209.541c-47.942-23.281-35.113-16.962-49.413-24.232c0-0.001,22.672-37.088,22.673-37.089l-8.585,29.81
			l15.643,7.596l4.349-35.552c-7.91-22.323-8.845-24.96-17.952-50.657c-8.535,2.575-14.543,7.744-19.144,13.563
			c-5.383,6.809-42.217,67.841-43.422,69.712c-6.54,10.17-2.661,23.734,8.12,28.969l70.158,34.069
			c9.994,4.853,22.028,0.684,26.881-9.308C337.723,226.429,333.556,214.394,323.563,209.541z"/>
	</g>
</g>
<g>
</g>
<g>
</g>
<g>
</g>
<g>
</g>
<g>
</g>
<g>
</g>
<g>
</g>
<g>
</g>
<g>
</g>
<g>
</g>
<g>
</g>
<g>
</g>
<g>
</g>
<g>
</g>
<g>
</g>
</svg>
