<?xml version="1.0" encoding="iso-8859-1"?>
<!-- Generator: Adobe Illustrator 19.0.0, SVG Export Plug-In . SVG Version: 6.00 Build 0)  -->
<svg version="1.1" id="Layer_1" xmlns="http://www.w3.org/2000/svg" xmlns:xlink="http://www.w3.org/1999/xlink" x="0px" y="0px"
	 viewBox="0 0 512 512" style="enable-background:new 0 0 512 512;" xml:space="preserve">
<g>
	<g>
		<path d="M152.495,245.429c-2.019,2.846-2.699,6.58-1.487,10.134c2.002,5.88,8.39,9.022,14.272,7.02l17.573-5.985L152.495,245.429z
			"/>
	</g>
</g>
<g>
	<g>
		<path d="M511.748,493.085l-8.581-27.032c3.659-1.856,6.172-5.643,6.172-10.026c0-6.211-5.035-11.246-11.246-11.246h-36.698
			c0.026-0.308,0.047-0.618,0.047-0.933v-16.189l6.853-0.701c23.405-2.394,40.439-23.307,38.044-46.712
			c-1.899-18.566-15.661-33.735-33.955-37.425L322.47,312.58l-77.907-92.887c1.242,6.387,0.81,13.182-1.601,19.735
			c-1.1,2.99-2.547,5.751-4.278,8.257l49.307,58.788c-35.478,6.164-60.651,38.813-56.931,75.186
			c2.308,22.578,15.228,41.506,33.304,52.342c9.732-16,27.19-26.104,46.317-26.104c21.27,0,39.708,12.328,48.565,30.211
			l79.702-8.151v13.889c0,0.315,0.022,0.625,0.047,0.933h-36.7c-6.211,0-11.246,5.035-11.246,11.246
			c0,4.141,2.245,7.749,5.577,9.702l-8.685,27.357c-1.089,3.429,1.476,6.929,5.07,6.929h85.51v-21.93l6.69,21.93h21.465
			C510.275,500.014,512.835,496.51,511.748,493.085z M325.951,388.065c-11.995,0-47.147,0-60.728,0
			c-4.659,0-8.435-3.777-8.435-8.435s3.777-8.435,8.435-8.435c7.651,0,53.849,0,60.728,0c4.659,0,8.435,3.777,8.435,8.435
			S330.608,388.065,325.951,388.065z M325.951,359.152c-12.115,0-48.591,0-60.728,0c-4.659,0-8.435-3.777-8.435-8.435
			s3.777-8.435,8.435-8.435c12.604,0,48.387,0,60.728,0c4.659,0,8.435,3.777,8.435,8.435S330.608,359.152,325.951,359.152z"/>
	</g>
</g>
<g>
	<g>
		<path d="M215.214,208.067l-63.847-23.492l-29.937-48.52l32.286,30.54l4.42-20.653c3.455-16.145-6.833-32.035-22.979-35.49
			L83.027,99.297c-16.146-3.455-32.035,6.833-35.49,22.979L18.361,272.89c0,0,4.855,31.951,13.02,85.177L0.854,469.413
			c-3.479,12.689,3.987,25.795,16.676,29.274c12.695,3.479,25.798-3.994,29.274-16.676l31.869-116.241
			c0.884-3.227,1.08-6.604,0.573-9.911l-11.091-72.315l10.475,2.242l27.912,76.1l7.516,115.374
			c0.854,13.126,12.185,23.078,25.321,22.224c13.129-0.856,23.079-12.191,22.224-25.322l-7.739-118.803
			c-0.148-2.274-0.622-4.515-1.406-6.655l-23.815-64.931l9.348-43.682c-9.939-3.657-9.439-3.473-19.216-7.071
			c-6.009-2.212-10.327-7.143-12.076-12.824l-19.057-63.295l33.539,54.36c2.334,3.782,5.869,6.672,10.04,8.206l70.284,25.86
			c10.287,3.786,21.699-1.485,25.486-11.776C230.777,223.263,225.504,211.853,215.214,208.067z"/>
	</g>
</g>
<g>
	<g>
		<circle cx="133.561" cy="52.837" r="40.85"/>
	</g>
</g>
<g>
	<g>
		<path d="M310.68,424.767c-20.567,0-37.299,16.732-37.299,37.299c0,20.567,16.732,37.299,37.299,37.299
			s37.299-16.732,37.299-37.299C347.98,441.499,331.248,424.767,310.68,424.767z M310.68,477.062
			c-8.281,0-14.995-6.714-14.995-14.995s6.714-14.995,14.995-14.995s14.995,6.714,14.995,14.995S318.962,477.062,310.68,477.062z"/>
	</g>
</g>
<g>
</g>
<g>
</g>
<g>
</g>
<g>
</g>
<g>
</g>
<g>
</g>
<g>
</g>
<g>
</g>
<g>
</g>
<g>
</g>
<g>
</g>
<g>
</g>
<g>
</g>
<g>
</g>
<g>
</g>
</svg>
