<?xml version="1.0" encoding="iso-8859-1"?>
<!-- Generator: Adobe Illustrator 19.0.0, SVG Export Plug-In . SVG Version: 6.00 Build 0)  -->
<svg version="1.1" id="Layer_1" xmlns="http://www.w3.org/2000/svg" xmlns:xlink="http://www.w3.org/1999/xlink" x="0px" y="0px"
	 viewBox="0 0 511.999 511.999" style="enable-background:new 0 0 511.999 511.999;" xml:space="preserve">
<g>
	<g>
		<path d="M424.115,0H176.863c-16.195,0-29.372,13.176-29.372,29.372v38.562c5.164-2.558,10.817-4.267,16.778-4.958V29.372
			c0-6.945,5.65-12.594,12.594-12.594h247.252c6.944,0,12.594,5.65,12.594,12.594v294.56c0,6.945-5.65,12.594-12.594,12.594H231.586
			v16.778h192.529c16.195,0,29.372-13.176,29.372-29.372V29.372C453.487,13.177,440.311,0,424.115,0z"/>
	</g>
</g>
<g>
	<g>
		<path d="M170.211,77.884c-19.95,0-36.122,16.173-36.122,36.122c0,11.037,4.956,20.913,12.757,27.538h46.733
			c7.801-6.626,12.757-16.5,12.757-27.538C206.335,94.057,190.162,77.884,170.211,77.884z"/>
	</g>
</g>
<g>
	<g>
		<path d="M378.93,51.683h-96.976c-2.725,0-4.934,2.209-4.934,4.934v20.341c0,2.725,2.209,4.934,4.934,4.934h37.517v46.132
			c-1.476,1.2,1.831-2.218-41.933,44.516c-17.193-4.586-41.926-10.901-53.806-13.92c-4.59-1.167-9.285-1.746-14.021-1.746H123.28
			c-22.411,0-41.131,18.232-41.246,41.041l-0.63,125.345c-13.162,6.582-22.304,20.052-22.657,35.662h-0.236l8.749,80.491
			c0.338,3.109,2.964,5.465,6.091,5.465h35.016v-85.956H71.826c0.315-9.495,5.414-17.796,12.955-22.575
			c3.154,4.293,8.214,7.103,13.95,7.13c0.03,0.001,0.059,0.001,0.089,0.001c3.524,0,6.802-1.055,9.545-2.857
			c4.719-3.098,7.851-8.418,7.881-14.486l0.643-128.046c0.01-1.857,1.519-3.354,3.375-3.349c1.856,0.006,3.357,1.51,3.357,3.366
			l0.008,292.978c0,11.551,9.364,20.915,20.915,20.915s20.915-9.364,20.915-20.915V323.905h9.031v167.179
			c0,11.551,9.364,20.915,20.915,20.915s20.915-9.364,20.915-20.915c0-273.648-0.379-123.208-0.379-298.978
			c11.001,2.952,56.949,15.279,62.659,16.81c6.174,1.658,12.816-0.198,17.239-4.92l47.326-50.538
			c6.58-7.026,6.218-18.057-0.809-24.635c-0.304-0.284-0.625-0.539-0.943-0.798V81.891h37.517c2.725,0,4.934-2.209,4.934-4.934
			v-20.34C383.864,53.891,381.655,51.683,378.93,51.683z"/>
	</g>
</g>
<g>
	<g>
		<path d="M383.958,98.648c-5.849,0-10.589,14.281-10.589,20.129s4.74,10.589,10.589,10.589s10.589-4.741,10.589-10.589
			S389.807,98.648,383.958,98.648z"/>
	</g>
</g>
<g>
	<g>
		<path d="M371.469,149.21c-4.797,0-8.688,11.716-8.688,16.514s3.889,8.688,8.688,8.688c4.797,0,8.688-3.889,8.688-8.688
			C380.156,160.925,376.266,149.21,371.469,149.21z"/>
	</g>
</g>
<g>
	<g>
		<path d="M248.812,41.482l-8.001-3.197l-3.198-8.002c-0.186-0.465-0.636-0.771-1.138-0.771s-0.952,0.305-1.138,0.771l-3.198,8.002
			l-8.001,3.197c-0.465,0.186-0.771,0.636-0.771,1.138s0.305,0.952,0.771,1.138l8.001,3.198l3.198,8.001
			c0.186,0.465,0.636,0.771,1.138,0.771s0.952-0.305,1.138-0.771l3.198-8.001l8.001-3.198c0.465-0.186,0.771-0.636,0.771-1.138
			S249.278,41.668,248.812,41.482z"/>
	</g>
</g>
<g>
	<g>
		<path d="M248.921,85.575l-5.33-2.13l-2.13-5.33c-0.113-0.284-0.388-0.47-0.693-0.47c-0.305,0-0.581,0.186-0.693,0.47l-2.13,5.33
			l-5.33,2.13c-0.284,0.113-0.47,0.388-0.47,0.693s0.186,0.581,0.47,0.693l5.33,2.13l2.13,5.33c0.113,0.284,0.388,0.47,0.693,0.47
			c0.305,0,0.581-0.186,0.693-0.47l2.13-5.33l5.33-2.13c0.284-0.113,0.47-0.388,0.47-0.693S249.205,85.688,248.921,85.575z"/>
	</g>
</g>
<g>
</g>
<g>
</g>
<g>
</g>
<g>
</g>
<g>
</g>
<g>
</g>
<g>
</g>
<g>
</g>
<g>
</g>
<g>
</g>
<g>
</g>
<g>
</g>
<g>
</g>
<g>
</g>
<g>
</g>
</svg>
