<?xml version="1.0" encoding="iso-8859-1"?>
<!-- Generator: Adobe Illustrator 19.0.0, SVG Export Plug-In . SVG Version: 6.00 Build 0)  -->
<svg version="1.1" id="Layer_1" xmlns="http://www.w3.org/2000/svg" xmlns:xlink="http://www.w3.org/1999/xlink" x="0px" y="0px"
	 viewBox="0 0 512.001 512.001" style="enable-background:new 0 0 512.001 512.001;" xml:space="preserve">
<g>
	<g>
		<path d="M364.331,366.05H319.36c-0.763,3.011-1.907,5.978-3.456,8.834c-9.216,16.999-29.47,24.182-47.06,17.501l-1.531,2.986
			c-2.427,4.732,1.014,10.375,6.339,10.375h77.229c2.917,0,5.59-1.633,6.921-4.229l12.868-25.092
			C373.097,371.694,369.657,366.05,364.331,366.05z"/>
	</g>
</g>
<g>
	<g>
		<path d="M437.071,312.066h-77.229c-2.918-0.001-5.59,1.632-6.921,4.228l-12.868,25.092c-2.427,4.732,1.014,10.376,6.339,10.376
			h77.229c2.917,0,5.59-1.633,6.921-4.229l12.868-25.092C445.836,317.709,442.395,312.066,437.071,312.066z"/>
	</g>
</g>
<g>
	<g>
		<path d="M391.268,256.485h-77.229c-2.918,0.001-5.59,1.635-6.921,4.23l-12.868,25.092c-2.427,4.732,1.014,10.375,6.339,10.375
			h77.229c2.917,0,5.59-1.633,6.921-4.229l12.868-25.092C400.033,262.129,396.592,256.485,391.268,256.485z"/>
	</g>
</g>
<g>
	<g>
		<path d="M323.161,312.065h-43.042l20.422,11.072c8.695,4.715,14.825,12.318,17.845,20.976L329.5,322.44
			C331.927,317.707,328.484,312.065,323.161,312.065z"/>
	</g>
</g>
<g>
	<g>
		<circle cx="264.702" cy="151.792" r="46.687"/>
	</g>
</g>
<g>
	<g>
		<path d="M292.431,338.097l-65.819-35.684l-13.194-67.525l8.675,20.214c13.451-10.551,16.074-29.964,5.77-43.713
			c-13.57-18.106-34.084-29.726-56.59-32.053c-22.507-2.327-44.964,4.848-61.952,19.795l-50.438,44.38
			c-12.566,11.057-19.502,27.173-18.891,43.901c0.583,15.97,7.997,30.872,20.276,40.99c2.53,3.004,1.377,1.846,35.098,27.255
			l-69.824-0.433C11.543,355.141,0.087,366.432,0,380.45c-0.086,14.018,11.206,26.359,25.225,26.446h146.476
			c0.053,0,0.105,0,0.159,0c10.879-0.001,20.557-6.938,24.045-17.255c3.504-10.368-0.031-21.814-8.771-28.4l-53.176-40.067
			l37.115-27.815l1.269-48.087l14.663,75.041c1.211,6.197,5.128,11.529,10.678,14.539l74.585,40.436
			c10.272,5.57,23.111,1.753,28.676-8.514C306.513,356.504,302.701,343.665,292.431,338.097z"/>
	</g>
</g>
<g>
	<g>
		<path d="M504.869,256.486H427.64c-2.917,0-5.59,1.633-6.921,4.229l-12.868,25.092c-2.427,4.732,1.014,10.375,6.339,10.375h77.229
			c2.917,0,5.59-1.633,6.921-4.229l12.868-25.092C513.635,262.13,510.194,256.486,504.869,256.486z"/>
	</g>
</g>
<g>
	<g>
		<path d="M476.767,366.05h-77.229c-2.917,0-5.59,1.633-6.921,4.229l-12.868,25.092c-2.427,4.732,1.014,10.375,6.339,10.375h77.229
			c2.917,0,5.59-1.633,6.921-4.229l12.868-25.092C485.532,371.694,482.091,366.05,476.767,366.05z"/>
	</g>
</g>
<g>
</g>
<g>
</g>
<g>
</g>
<g>
</g>
<g>
</g>
<g>
</g>
<g>
</g>
<g>
</g>
<g>
</g>
<g>
</g>
<g>
</g>
<g>
</g>
<g>
</g>
<g>
</g>
<g>
</g>
</svg>
