<?xml version="1.0" encoding="iso-8859-1"?>
<!-- Generator: Adobe Illustrator 19.0.0, SVG Export Plug-In . SVG Version: 6.00 Build 0)  -->
<svg version="1.1" id="Layer_1" xmlns="http://www.w3.org/2000/svg" xmlns:xlink="http://www.w3.org/1999/xlink" x="0px" y="0px"
	 viewBox="0 0 512 512" style="enable-background:new 0 0 512 512;" xml:space="preserve">
<g>
	<g>
		<rect x="322.248" width="124.661" height="512"/>
	</g>
</g>
<g>
	<g>
		<path d="M143.948,15.738c-16.088,0-29.181,13.068-29.181,29.181c0,16.099,13.082,29.181,29.181,29.181
			c16.083,0,29.181-13.03,29.181-29.181C173.129,28.803,160.065,15.738,143.948,15.738z"/>
	</g>
</g>
<g>
	<g>
		<path d="M289.137,39.157h-7.791v-1.188c0-3.955-3.206-7.16-7.16-7.16h-52.87c-3.955,0-7.16,3.206-7.16,7.16v1.188h-2.933
			c-3.688,0-6.678,2.991-6.678,6.678s2.991,6.678,6.678,6.678h2.933v1.188c0,3.955,3.206,7.16,7.16,7.16h52.87
			c3.955,0,7.16-3.206,7.16-7.16v-1.188h1.113v27.618h-34.504c-3.688,0-6.678,2.991-6.678,6.678c0,7.86,0,31.018,0,34.397
			c-1.113,0.508,0.434-0.328-26.008,14.876l-0.088-19.531c-0.09-17.975-14.823-33.153-33.319-33.153c-8.053,0-67.529,0-75.587,0
			c-18.281,0-33.228,14.872-33.319,33.153l-0.52,103.438c-0.039,7.776,6.233,14.111,14.009,14.15c0.023,0,0.048,0,0.072,0
			c7.742,0,14.039-6.258,14.078-14.009l0.52-103.438c0.009-1.626,1.33-2.936,2.955-2.932c1.624,0.004,2.938,1.322,2.938,2.947
			c0,148.806-0.306,4.969-0.306,236.67c0,7.167,4.471,13.277,10.77,15.733l-22.155,0.336c0.035-28.238,0.256-114.512,0.256-125.863
			c-2.813,1.09-5.866,1.687-9.054,1.687c-0.061,0-0.121,0-0.181-0.001c-4.088-0.029-8.22-1.069-11.908-3.093
			c-0.558,15.342-7.907,217.71-9.328,256.838c-0.252,6.913,5.149,12.721,12.063,12.972c0.155,0.006,0.308,0.009,0.463,0.009
			c6.707,0,12.265-5.313,12.51-12.071l1.021-28.104h106.533l1.021,28.104c0.252,6.913,6.059,12.348,12.972,12.062
			c6.913-0.252,12.314-6.058,12.062-12.972c-1.655-45.576-9.265-255.092-11.475-315.965c-6.134,2.963-13.161,3.322-19.552,1.01
			c-0.038,105.323,1.241,185.05,1.241,185.05h-23.151c6.299-2.455,10.77-8.565,10.77-15.733l0.007-236.695
			c0-1.495,1.208-2.709,2.702-2.718s2.717,1.192,2.735,2.687c0,0.012,0,0.023,0,0.036c0.178,39.544,0.119,26.517,0.197,43.734
			c0.048,10.785,11.747,17.518,21.098,12.143l45.803-26.337c6.734-3.872,9.068-12.476,5.188-19.223
			c-1.054-1.834-2.656-3.596-4.674-4.873c0-2.609,0,4.649,0-28.643h34.504c3.688,0,6.678-2.991,6.678-6.678V45.835
			C295.815,42.148,292.824,39.157,289.137,39.157z M140.49,353.379V218.33h7.295v135.049c0,7.167,4.471,13.277,10.77,15.733h-28.833
			C136.02,366.657,140.49,360.547,140.49,353.379z M194.864,394.164l1.911,52.607H92.062l1.911-52.607H194.864z"/>
	</g>
</g>
<g>
</g>
<g>
</g>
<g>
</g>
<g>
</g>
<g>
</g>
<g>
</g>
<g>
</g>
<g>
</g>
<g>
</g>
<g>
</g>
<g>
</g>
<g>
</g>
<g>
</g>
<g>
</g>
<g>
</g>
</svg>
