<?xml version="1.0" encoding="iso-8859-1"?>
<!-- Generator: Adobe Illustrator 19.0.0, SVG Export Plug-In . SVG Version: 6.00 Build 0)  -->
<svg version="1.1" id="Layer_1" xmlns="http://www.w3.org/2000/svg" xmlns:xlink="http://www.w3.org/1999/xlink" x="0px" y="0px"
	 viewBox="0 0 512 512" style="enable-background:new 0 0 512 512;" xml:space="preserve">
<g>
	<g>
		<path d="M501.492,243.636l-4.115-0.063c-0.6-14.95-8.858-27.958-20.955-35.199c-0.001,0.464-0.002,0.927-0.022,1.394
			c-0.243,5.931-1.942,11.455-4.724,16.257c4.828,4.33,8.022,10.442,8.548,17.29c-20.635-0.295-52.08-0.963-73.944-1.031
			c-5.272,0.578-9.413,5-9.494,10.441c-0.088,5.892,4.615,10.74,10.506,10.829l1.16,0.018l7.603,81.37
			c0.333,3.556,3.29,6.292,6.86,6.345l59.989,0.906c3.571,0.054,6.61-2.591,7.049-6.135l10.057-81.103l1.16,0.018
			c0.055,0.001,0.109,0.001,0.164,0.001c5.817,0,10.577-4.672,10.665-10.509C512.088,248.574,507.385,243.726,501.492,243.636z"/>
	</g>
</g>
<g>
	<g>
		<path d="M441.842,189.288l-65.208-2.681l-41.6-35.506l41.843,19.177l1.875-22.797c1.297-15.786-10.448-29.636-26.234-30.933
			c-1.252-0.103-50.973-4.19-50.973-4.19c-15.786-1.298-29.635,10.447-30.933,26.234c-0.052,0.64-6.887,96.389-9.492,132.878
			c-0.65,9.117-0.284,18.521,1.102,27.555l9.123,59.484l-29.286,106.817c-3.337,12.173,3.825,24.746,15.999,28.083
			c12.172,3.338,24.746-3.825,28.083-15.998l30.573-111.512c0.849-3.096,1.036-6.335,0.549-9.508l-10.302-67.169l10.032,0.824
			l26.457,72.131l7.209,110.681c0.822,12.618,11.729,22.149,24.292,21.32c12.595-0.82,22.141-11.696,21.32-24.29l-7.423-113.971
			c-0.142-2.182-0.598-4.332-1.351-6.384l-20.711-56.467l4.293-52.228c-9.765-0.401-18.364,0.581-24.762-8.57l-36.009-52.195
			l46.606,39.778c3.243,2.768,7.322,4.368,11.582,4.543l71.784,2.951c0.266,0.011,0.531,0.017,0.797,0.017
			c10.156,0,18.594-8.02,19.014-18.263C460.521,198.59,452.352,189.72,441.842,189.288z"/>
	</g>
</g>
<g>
	<g>
		<circle cx="343.903" cy="61.93" r="39.188"/>
	</g>
</g>
<g>
	<g>
		<path d="M156.664,469.627l-4.848-74.434h-46.288l5.044,77.437c0.829,12.735,11.829,22.377,24.547,21.545
			C147.846,493.345,157.494,482.355,156.664,469.627z"/>
	</g>
</g>
<g>
	<g>
		<circle cx="103.746" cy="57.373" r="39.602"/>
	</g>
</g>
<g>
	<g>
		<path d="M210.378,299.633h-28.987c0-7.176,0-12.704,0-20.481c0-7.663-6.235-13.898-13.898-13.898h-5.85
			c-0.92-2.509-2.363-4.871-4.365-6.896c-5.647-5.711-40.863-41.329-46.37-46.899l-6.304-54.908l16.37,41.627l12.483,12.624
			l5.505-66.977c1.312-15.952-10.558-29.948-26.51-31.259c-3.426-0.281-45.026-3.701-51.51-4.234
			c-15.952-1.312-29.948,10.558-31.259,26.51L19.049,264.209c-0.665,8.09-0.379,16.231,0.851,24.255l10.523,68.614L0.828,465.022
			c-3.373,12.3,3.865,25.008,16.166,28.379c12.301,3.373,25.008-3.866,28.379-16.166l23.501-85.716
			c-5.662-3.843-9.39-10.331-9.39-17.675v-67.018c0-11.959,9.841-21.349,21.349-21.349h14.83l0.371-10.851l-28.903-29.233
			c-4.599-4.652-11.631-10.127-10.093-21.053l9.326-63.399l7.063,61.517c0.492,4.281,2.405,8.272,5.435,11.336
			c33.542,33.924,21.969,22.219,35.087,35.487c-2.547,2.52-4.129,6.013-4.129,9.871c0,7.765,0,13.307,0,20.481H80.833
			c-3.972,0-7.192,3.221-7.192,7.192v67.018c0,3.972,3.221,7.192,7.192,7.192h129.545c3.972,0,7.192-3.221,7.192-7.192v-67.018
			C217.57,302.853,214.35,299.633,210.378,299.633z M123.977,279.424l5.93,5.998c0.019,0.019,0.04,0.036,0.059,0.055
			c7.49,7.513,19.627,7.546,27.157,0.099c0.032-0.032,0.059-0.067,0.092-0.099c1.792-1.797,3.154-3.861,4.089-6.065h5.931
			c0,6.687,0,3.06,0,20.222h-43.257C123.977,282.601,123.977,286.908,123.977,279.424z M196.609,337.26h-38.42v14.062
			c0,2.372-1.923,4.295-4.295,4.295h-16.578c-2.372,0-4.295-1.923-4.295-4.295V337.26H96.237c-4.101,0-7.424-3.325-7.424-7.425
			c0-4.101,3.325-7.424,7.424-7.424h100.372c4.101,0,7.424,3.325,7.424,7.424C204.034,333.936,200.709,337.26,196.609,337.26z"/>
	</g>
</g>
<g>
</g>
<g>
</g>
<g>
</g>
<g>
</g>
<g>
</g>
<g>
</g>
<g>
</g>
<g>
</g>
<g>
</g>
<g>
</g>
<g>
</g>
<g>
</g>
<g>
</g>
<g>
</g>
<g>
</g>
</svg>
