<?xml version="1.0" encoding="iso-8859-1"?>
<!-- Generator: Adobe Illustrator 19.0.0, SVG Export Plug-In . SVG Version: 6.00 Build 0)  -->
<svg version="1.1" id="Layer_1" xmlns="http://www.w3.org/2000/svg" xmlns:xlink="http://www.w3.org/1999/xlink" x="0px" y="0px"
	 viewBox="0 0 511.998 511.998" style="enable-background:new 0 0 511.998 511.998;" xml:space="preserve">
<g>
	<g>
		<path d="M255.998,0c-23.503,0-42.556,19.053-42.556,42.556c0,0.047,0.003,0.093,0.003,0.14l84.155,8.822
			c0.62-2.89,0.954-5.887,0.954-8.962C298.554,19.053,279.501,0,255.998,0z"/>
	</g>
</g>
<g>
	<g>
		<path d="M470.531,88.004l-92.381-9.685c6.158,10.92,6.862,24.63,0.656,36.588l-9.179,17.683l95.182,9.979
			c6.879,0.721,13.042-4.271,13.763-11.15l3.109-29.652C482.403,94.886,477.41,88.725,470.531,88.004z"/>
	</g>
</g>
<g>
	<g>
		<path d="M354.244,78.857c-10.142-5.262-22.623-1.306-27.884,8.83l-36.359,70.054l-43.039-23.919l31.162,8.323l37.795-70.348
			L47.186,43.621c-6.879-0.72-13.039,4.272-13.761,11.15l-3.108,29.652c-0.721,6.879,4.271,13.042,11.15,13.762l139.024,14.575
			c-2.243,3.873-3.688,8.289-4.079,13.047L163.322,285.06l13.887,79.558l-31.803,115.996c-3.624,13.218,4.154,26.873,17.372,30.496
			c13.236,3.625,26.876-4.169,30.496-17.372l33.201-121.095c0.922-3.362,1.124-6.879,0.596-10.324l-11.186-72.939l10.895,0.896
			l28.726,78.322l7.83,120.191c0.887,13.615,12.621,24.035,26.378,23.152c13.678-0.891,24.043-12.7,23.152-26.378l-8.064-123.763
			c-0.154-2.37-0.648-4.704-1.465-6.933l-22.49-61.318l5.678-69.085l-59.655-54.489l61.638,34.255
			c10.116,5.621,23,1.861,28.403-8.549l46.161-88.94C368.335,96.603,364.381,84.119,354.244,78.857z"/>
	</g>
</g>
<g>
</g>
<g>
</g>
<g>
</g>
<g>
</g>
<g>
</g>
<g>
</g>
<g>
</g>
<g>
</g>
<g>
</g>
<g>
</g>
<g>
</g>
<g>
</g>
<g>
</g>
<g>
</g>
<g>
</g>
</svg>
