<?xml version="1.0" encoding="iso-8859-1"?>
<!-- Generator: Adobe Illustrator 19.0.0, SVG Export Plug-In . SVG Version: 6.00 Build 0)  -->
<svg version="1.1" id="Layer_1" xmlns="http://www.w3.org/2000/svg" xmlns:xlink="http://www.w3.org/1999/xlink" x="0px" y="0px"
	 viewBox="0 0 512 512" style="enable-background:new 0 0 512 512;" xml:space="preserve">
<g>
	<g>
		<path d="M217.109,373.244l-1.723-13.898c-6.512,0.629-12.857,0.783-19.515,0.48c-10.997-0.501-21.517-2.211-31.507-5.086
			l2.248,18.134l-43.076,104.55c-5.267,12.783,0.827,27.415,13.609,32.682c12.787,5.268,27.417-0.83,32.682-13.609l45.583-110.636
			C217.055,381.871,217.64,377.526,217.109,373.244z"/>
	</g>
</g>
<g>
	<g>
		<path d="M285.966,361.792l-3.971-30.402c-14.07,11.827-29.944,20.06-47.285,24.558l1.056,8.085l-24.934,117.74
			c-2.864,13.525,5.779,26.813,19.304,29.677c13.525,2.865,26.813-5.779,29.677-19.304l25.821-121.927
			C286.22,367.45,286.332,364.6,285.966,361.792z"/>
	</g>
</g>
<g>
	<g>
		<path d="M465.284,212.6c-1.291-6.885-7.914-11.419-14.805-10.13l-97.77,18.333c3.946,7.661,5.154,16.488,3.125,25.225
			l99.32-18.624C462.04,226.113,466.576,219.485,465.284,212.6z"/>
	</g>
</g>
<g>
	<g>
		<circle cx="214.965" cy="45.423" r="45.423"/>
	</g>
</g>
<g>
	<g>
		<path d="M323.338,216.027c-10.833-1.735-63.982-10.249-74.851-11.99l-24.681-54.145l32.716,40.221l16.239,2.601V135.12
			c0-16.945-13.736-30.682-30.682-30.682h-29.616c-30.808-10.273-56.321-4.761-73.152,2.395c-1.133,0.482-2.237,0.979-3.319,1.485
			c-3.756-8.497-12.253-14.43-22.14-14.43h-8.894V66.742h9.984c7.005,0,12.684-5.679,12.684-12.684
			c0-7.005-5.679-12.684-12.684-12.684c-16.376,0-28.959,0-45.335,0c-7.005,0-12.684,5.679-12.684,12.684
			c0,7.005,5.678,12.684,12.684,12.684h9.984v27.146h-8.895c-13.365,0-24.2,10.835-24.2,24.2v113.786
			c0,13.271,10.684,24.042,23.919,24.193c0.094,0.001,0.187,0.007,0.281,0.007h14.386c3.37,9.425,8.616,21.503,16.465,33.725
			c22.445,34.949,55.28,54.379,94.953,56.188c41.412,1.882,74.776-16.342,98.191-48.669c5.982-8.26,10.667-16.56,14.269-23.993
			l-26.413-4.231c-13.279,23.864-39.122,53.639-84.892,51.551c-31.292-1.426-56.304-16.197-74.341-43.901
			c-4.646-7.136-8.24-14.282-10.978-20.669h1.516c4.396,0,8.514-1.178,12.068-3.227c7.249-4.181,12.133-12.004,12.133-20.974
			v-95.889c5.002-3.086,11.293-6.212,18.688-8.471l-0.087,165.03c10.814,7.863,24.471,13.478,41.634,14.261
			c30.27,1.37,53.758-13.865,69.748-40.036l-40.459-6.481c-17.328-2.775-27.318-16.877-28.829-24.44l-12.525-62.731l27.254,59.791
			c3.044,6.675,9.224,11.387,16.475,12.55l86.453,13.848c11.81,1.893,23.171-6.094,25.104-18.173
			C343.425,229.181,335.289,217.941,323.338,216.027z"/>
	</g>
</g>
<g>
</g>
<g>
</g>
<g>
</g>
<g>
</g>
<g>
</g>
<g>
</g>
<g>
</g>
<g>
</g>
<g>
</g>
<g>
</g>
<g>
</g>
<g>
</g>
<g>
</g>
<g>
</g>
<g>
</g>
</svg>
