<?xml version="1.0" encoding="iso-8859-1"?>
<!-- Generator: Adobe Illustrator 19.0.0, SVG Export Plug-In . SVG Version: 6.00 Build 0)  -->
<svg version="1.1" id="Layer_1" xmlns="http://www.w3.org/2000/svg" xmlns:xlink="http://www.w3.org/1999/xlink" x="0px" y="0px"
	 viewBox="0 0 511.988 511.988" style="enable-background:new 0 0 511.988 511.988;" xml:space="preserve">
<g>
	<g>
		<path d="M483.029,388.928l-18.304,18.304l-50.315-4.193l23.7-35.621c1.913-2.876,1.532-6.702-0.909-9.144l-40.157-40.157
			c-2.443-2.443-6.269-2.823-9.144-0.909l-2.701,1.798c-0.091-9.886-3.977-19.168-10.977-26.169
			c-1.201-1.201-2.474-2.303-3.801-3.318c-0.814,3.487-2.046,6.932-3.741,10.264c-1.169,2.299-2.53,4.45-4.027,6.475
			c6.88,7.833,6.595,19.702-0.882,27.178c-7.779,7.779-20.37,7.78-28.149,0c-2.547-2.547-4.241-5.623-5.116-8.875
			c-2.6,0.132-5.165,0.122-8.526-0.34c-3.321-0.456-6.562-1.281-9.69-2.449c0.561,8.787,4.182,17.413,10.882,24.113
			c3.418,3.417,7.381,6.086,11.691,7.941l-20.285,13.494c-8.512,5.664-9.706,17.714-2.48,24.938l52.96,52.96
			c7.229,7.229,19.279,6.026,24.938-2.48l2.862-4.302l73.867-6.156l18.304,18.304c2.895,2.895,7.874,0.845,7.874-3.262v-55.134
			C490.904,388.096,485.933,386.024,483.029,388.928z"/>
	</g>
</g>
<g>
	<g>
		<path d="M336.669,258.509l-71.51-36.356l-10.224-87.608l27.391,70.339l23.472-35.554c10.521-15.937,6.131-37.387-9.806-47.908
			L244.53,87.447c-15.937-10.521-37.387-6.131-47.908,9.806l-87.781,133.058c-7.043,10.674-10.712,23.22-10.533,36.007l1.65,118.024
			l-72.225,82.885c-9.802,11.247-8.628,28.313,2.619,38.113c11.253,9.805,28.316,8.624,38.113-2.619l79.029-90.693
			c4.38-5.026,6.747-11.496,6.644-18.163c0-0.004-1.744-113.215-1.744-113.224l7.857,5.187l48.285,72.444l-18.29,122.716
			c-2.2,14.756,7.981,28.501,22.737,30.701c14.758,2.198,28.501-7.983,30.701-22.737l19.824-133.016
			c0.988-6.628-0.524-13.388-4.24-18.964l-32.225-48.35l4.37-6.62l-8.447-4.295c-18.398-9.353-25.86-29.01-24.553-40.374
			l10.829-94.2l11.289,96.743c0.892,7.627,5.522,14.424,12.525,17.985l82.594,41.99c10.185,5.178,22.668,2.155,29.333-7.131
			C353.324,281.098,349.282,264.922,336.669,258.509z"/>
	</g>
</g>
<g>
	<g>
		<circle cx="316.053" cy="51.185" r="51.185"/>
	</g>
</g>
<g>
</g>
<g>
</g>
<g>
</g>
<g>
</g>
<g>
</g>
<g>
</g>
<g>
</g>
<g>
</g>
<g>
</g>
<g>
</g>
<g>
</g>
<g>
</g>
<g>
</g>
<g>
</g>
<g>
</g>
</svg>
