<?xml version="1.0" encoding="iso-8859-1"?>
<!-- Generator: Adobe Illustrator 19.0.0, SVG Export Plug-In . SVG Version: 6.00 Build 0)  -->
<svg version="1.1" id="Layer_1" xmlns="http://www.w3.org/2000/svg" xmlns:xlink="http://www.w3.org/1999/xlink" x="0px" y="0px"
	 viewBox="0 0 512 512" style="enable-background:new 0 0 512 512;" xml:space="preserve">
<g>
	<g>
		<circle cx="95.067" cy="45.191" r="45.191"/>
	</g>
</g>
<g>
	<g>
		<path d="M202.904,214.939l-74.474-11.93l-24.556-53.873l32.552,40.019l16.157,2.588v-57.305c0-16.859-13.667-30.528-30.528-30.528
			h-54.44c-16.859,0-30.528,13.667-30.528,30.528l-0.188,139.026l10.068,100.108L4.108,477.598
			c-5.24,12.719,0.823,27.277,13.541,32.517c12.722,5.242,27.279-0.826,32.517-13.541l45.353-110.079
			c1.635-3.969,2.217-8.293,1.689-12.553L89.094,308.5h19.327l7.35,56.279L90.964,481.926c-2.85,13.458,5.749,26.678,19.206,29.527
			c13.46,2.85,26.678-5.751,29.527-19.206l25.69-121.313c0.584-2.756,0.696-5.592,0.331-8.386
			c-13.277-101.662-12.432-95.294-12.598-96.284c-51.317-8.22-44.949-7.186-46.564-7.493c-17.045-3.246-26.234-17.197-27.615-24.111
			L66.48,172.244l27.117,59.49c3,6.581,9.113,11.32,16.392,12.486l86.017,13.778c10.672,1.71,20.845-4.66,24.148-14.667
			C224.389,230.517,216.12,217.057,202.904,214.939z"/>
	</g>
</g>
<g>
	<g>
		<path d="M501.484,304.653L305.621,256.48c-6.864-1.686-13.469,3.51-13.49,10.541l-0.254,86.138
			c-0.012,4.117,2.298,7.888,5.972,9.748l120.738,61.108c-4.023,2.495-7.655,5.583-10.773,9.164l-132.681-64.564l0.373-111.399
			c0.019-5.839-3.96-10.934-9.631-12.328l-29.695-7.303c-0.286,9.197-3.905,17.418-9.645,23.685l23.634,5.813l-0.367,109.391
			c-0.016,4.857,2.748,9.294,7.116,11.419l16.19,7.878l12.721,61.313c0.99,4.771,4.632,8.552,9.367,9.715
			c4.709,1.161,9.7-0.479,12.803-4.262l29.185-35.585l59.696,29.048c-4.434,24.483,10.937,48.586,35.421,54.607
			c25.409,6.25,51.199-9.113,57.52-34.812c6.261-25.455-9.355-51.258-34.809-57.519c-5.536-1.362-10.943-1.672-16.291-1.123
			l68.991-95.553C512.224,315.352,508.977,306.497,501.484,304.653z M305.224,426.018l-3.373-16.259l11.941,5.81L305.224,426.018z
			 M448.966,442.849c11.908,2.929,19.211,14.999,16.283,26.904c-2.953,12.004-14.983,19.216-26.904,16.283
			c-8.88-2.185-15.194-9.453-16.62-17.945l15.357,7.474c6.286,3.058,13.857,0.44,16.913-5.841
			c3.058-6.283,0.443-13.854-5.841-16.912l-15.652-7.617C437.477,442.311,443.329,441.462,448.966,442.849z"/>
	</g>
</g>
<g>
</g>
<g>
</g>
<g>
</g>
<g>
</g>
<g>
</g>
<g>
</g>
<g>
</g>
<g>
</g>
<g>
</g>
<g>
</g>
<g>
</g>
<g>
</g>
<g>
</g>
<g>
</g>
<g>
</g>
</svg>
