<svg id="bb79c110-435b-45fb-b9ff-91ee887d9257" data-name="Capa 1" xmlns="http://www.w3.org/2000/svg" viewBox="0 0 75.86 23.77"><defs><style>.aafdb98b-edb9-4347-a9c4-a782d18df6a2{fill:#706f6f;stroke:#706f6f;stroke-miterlimit:10;stroke-width:0.5px;}</style></defs><path class="aafdb98b-edb9-4347-a9c4-a782d18df6a2" d="M6.19,20.21a5.62,5.62,0,0,1-2.56-2.69,1.25,1.25,0,0,1-.12-.47.89.89,0,0,1,.26-.62,1.27,1.27,0,0,1,.7-.36.69.69,0,0,1,.23,0,1.29,1.29,0,0,1,.72.22,1.37,1.37,0,0,1,.5.59,3.41,3.41,0,0,0,1.66,1.55,5.93,5.93,0,0,0,2.73.63,5.23,5.23,0,0,0,3-.81A2.52,2.52,0,0,0,14.5,16a3,3,0,0,0-1-2.28,5.33,5.33,0,0,0-3.13-1.15,8.06,8.06,0,0,1-4.56-1.7A4.44,4.44,0,0,1,4.12,7.35,4,4,0,0,1,5,4.77,5.28,5.28,0,0,1,7.31,3.11a9.23,9.23,0,0,1,3.33-.57A6.6,6.6,0,0,1,14,3.35a7.07,7.07,0,0,1,2.34,2.34,1.67,1.67,0,0,1,.28.84,1,1,0,0,1-.47.84,1.09,1.09,0,0,1-.61.17,1.25,1.25,0,0,1-.65-.18,1.09,1.09,0,0,1-.47-.48,4.49,4.49,0,0,0-1.58-1.6,4.77,4.77,0,0,0-2.39-.55,5.34,5.34,0,0,0-2.88.69,2.23,2.23,0,0,0-1.1,2,2.54,2.54,0,0,0,1,2A6.7,6.7,0,0,0,11,10.53a7.38,7.38,0,0,1,4.35,1.69A4.83,4.83,0,0,1,16.88,16,4.64,4.64,0,0,1,16,18.84a5.58,5.58,0,0,1-2.42,1.8,8.68,8.68,0,0,1-3.24.59A8.42,8.42,0,0,1,6.19,20.21Z"/><path class="aafdb98b-edb9-4347-a9c4-a782d18df6a2" d="M21,20.65a1.14,1.14,0,0,1-.35-.86V4A1.15,1.15,0,0,1,21,3.08a1.2,1.2,0,0,1,.86-.33h4.68a6.11,6.11,0,0,1,3.09.77,5.37,5.37,0,0,1,2.13,2.15,6.33,6.33,0,0,1,.76,3.13,6,6,0,0,1-.76,3,5.33,5.33,0,0,1-2.13,2.08,6.31,6.31,0,0,1-3.09.75H23v5.12a1.21,1.21,0,0,1-.34.86,1.19,1.19,0,0,1-.88.35A1.18,1.18,0,0,1,21,20.65Zm5.54-8.23a3.57,3.57,0,0,0,2.61-1,3.5,3.5,0,0,0,1-2.61,3.79,3.79,0,0,0-1-2.74A3.46,3.46,0,0,0,26.49,5H23v7.43Z"/><path class="aafdb98b-edb9-4347-a9c4-a782d18df6a2" d="M35.51,20.65a1.14,1.14,0,0,1-.35-.86V4a1.15,1.15,0,0,1,.35-.88,1.2,1.2,0,0,1,.86-.33,1.22,1.22,0,0,1,.88.33,1.18,1.18,0,0,1,.34.88V19.79a1.17,1.17,0,0,1-.34.86,1.19,1.19,0,0,1-.88.35A1.18,1.18,0,0,1,35.51,20.65Z"/><path class="aafdb98b-edb9-4347-a9c4-a782d18df6a2" d="M42.61,20.65a1.18,1.18,0,0,1-.35-.86V4a1.19,1.19,0,0,1,.35-.88,1.24,1.24,0,0,1,.87-.33H54a1.2,1.2,0,0,1,.87.31,1.1,1.1,0,0,1,.33.83,1,1,0,0,1-.33.8A1.24,1.24,0,0,1,54,5H44.69v5.68H51.4a1.23,1.23,0,0,1,.86.31,1.09,1.09,0,0,1,.33.81,1.07,1.07,0,0,1-.33.81,1.23,1.23,0,0,1-.86.31H44.69v5.85H54a1.24,1.24,0,0,1,.87.3,1,1,0,0,1,.33.79,1.12,1.12,0,0,1-.33.84A1.2,1.2,0,0,1,54,21H43.48A1.22,1.22,0,0,1,42.61,20.65Z"/><path class="aafdb98b-edb9-4347-a9c4-a782d18df6a2" d="M57.9,20.63a1.28,1.28,0,0,1-.33-.87,1.12,1.12,0,0,1,.24-.72L69.24,4.9H59a1.28,1.28,0,0,1-.87-.28.94.94,0,0,1-.28-.75,1,1,0,0,1,.32-.81A1.22,1.22,0,0,1,59,2.75H71.11a1.19,1.19,0,0,1,.9.36,1.21,1.21,0,0,1,.33.85,1.11,1.11,0,0,1-.25.7L60.61,18.85h10.5a1.21,1.21,0,0,1,.85.32,1,1,0,0,1,.34.73,1,1,0,0,1-.33.81,1.28,1.28,0,0,1-.86.29H58.76A1.09,1.09,0,0,1,57.9,20.63Z"/></svg>