<svg id="f1341f26-cb6c-4b9d-82de-5d2a827c98aa" data-name="Capa 1" xmlns="http://www.w3.org/2000/svg" viewBox="0 0 109.39 36.56"><defs><style>.f86e1d77-882a-4110-a0c4-64e1309753e3{fill:#706f6f;stroke:#706f6f;stroke-miterlimit:10;stroke-width:0.5px;}.a2c991b4-aa68-40ff-ab51-2cf6800ad593{fill:#e94e1b;}</style></defs><path class="f86e1d77-882a-4110-a0c4-64e1309753e3" d="M24.87,32.3q3.38,0,6.62.23v-3.1a1.89,1.89,0,1,1,3.75,0v3.2a2.11,2.11,0,0,1,0,.25c2.35.27,4.61.64,6.78,1.08V19.26l-8.63-2.74-8.64,2.74v13Z"/><path class="a2c991b4-aa68-40ff-ab51-2cf6800ad593" d="M6.79,22.08H3.93a1.73,1.73,0,0,1-.6-.11V34.58A82.08,82.08,0,0,1,20.6,32.34V15.74a2.85,2.85,0,0,1-.29,0H17.45a1.88,1.88,0,1,1,0-3.76h2.86a2.85,2.85,0,0,1,.29,0V2H3.33V6.71a2,2,0,0,1,.6-.11H6.79a1.88,1.88,0,0,1,0,3.76H3.93a1.73,1.73,0,0,1-.6-.11v8.18a1.73,1.73,0,0,1,.6-.11H6.79a1.88,1.88,0,0,1,0,3.76Z"/><path class="f86e1d77-882a-4110-a0c4-64e1309753e3" d="M51.33,25.07a4.59,4.59,0,0,1-2.09-2.19,1.08,1.08,0,0,1-.09-.38.73.73,0,0,1,.21-.51,1.11,1.11,0,0,1,.57-.29.47.47,0,0,1,.19,0,1,1,0,0,1,.58.18,1.06,1.06,0,0,1,.41.48,2.77,2.77,0,0,0,1.36,1.26,4.76,4.76,0,0,0,2.23.52,4.27,4.27,0,0,0,2.42-.66,2.07,2.07,0,0,0,1-1.8,2.42,2.42,0,0,0-.84-1.86,4.37,4.37,0,0,0-2.56-.95A6.53,6.53,0,0,1,51,17.47a3.65,3.65,0,0,1-1.36-2.89,3.35,3.35,0,0,1,.7-2.11,4.31,4.31,0,0,1,1.91-1.35A7.53,7.53,0,0,1,55,10.65a5.28,5.28,0,0,1,2.76.67,5.62,5.62,0,0,1,1.91,1.91,1.31,1.31,0,0,1,.23.68.82.82,0,0,1-.38.69.91.91,0,0,1-.5.13,1.08,1.08,0,0,1-.53-.14,1,1,0,0,1-.38-.39,3.77,3.77,0,0,0-1.29-1.31,3.87,3.87,0,0,0-2-.45,4.29,4.29,0,0,0-2.34.57,1.81,1.81,0,0,0-.9,1.63,2.1,2.1,0,0,0,.8,1.66,5.56,5.56,0,0,0,2.86.87,6,6,0,0,1,3.55,1.39,3.92,3.92,0,0,1,1.26,3A3.84,3.84,0,0,1,59.32,24a4.61,4.61,0,0,1-2,1.47,7.2,7.2,0,0,1-2.64.48A6.85,6.85,0,0,1,51.33,25.07Z"/><path class="f86e1d77-882a-4110-a0c4-64e1309753e3" d="M63.38,25.44a1,1,0,0,1-.28-.71V11.81a.93.93,0,0,1,.28-.71,1,1,0,0,1,.71-.28H67.9a5.05,5.05,0,0,1,2.53.63,4.53,4.53,0,0,1,1.74,1.76,5.23,5.23,0,0,1,.62,2.55,4.93,4.93,0,0,1-.62,2.48,4.44,4.44,0,0,1-1.74,1.7,5.15,5.15,0,0,1-2.53.61H65.08v4.18a1,1,0,0,1-.28.71.93.93,0,0,1-.71.28A1,1,0,0,1,63.38,25.44Zm4.52-6.72A2.93,2.93,0,0,0,70,17.89a2.85,2.85,0,0,0,.84-2.13A3.11,3.11,0,0,0,70,13.53a2.85,2.85,0,0,0-2.14-.88H65.08v6.07Z"/><path class="f86e1d77-882a-4110-a0c4-64e1309753e3" d="M75.75,25.44a1,1,0,0,1-.28-.71V11.81a.93.93,0,0,1,.28-.71,1,1,0,0,1,.71-.28,1,1,0,0,1,1,1V24.73a1,1,0,0,1-.28.71.93.93,0,0,1-.71.28A1,1,0,0,1,75.75,25.44Z"/><path class="f86e1d77-882a-4110-a0c4-64e1309753e3" d="M81.07,25.44a1,1,0,0,1-.29-.71V11.81a1,1,0,0,1,1-1H90.4a1,1,0,0,1,.7.26.9.9,0,0,1,.27.68.82.82,0,0,1-.27.64,1,1,0,0,1-.7.25H82.77v4.64h5.47a1,1,0,0,1,.7.26.93.93,0,0,1,0,1.31,1,1,0,0,1-.7.26H82.77v4.77H90.4a1,1,0,0,1,.7.25.83.83,0,0,1,.27.65.87.87,0,0,1-.27.67.94.94,0,0,1-.7.26H81.77A.94.94,0,0,1,81.07,25.44Z"/><path class="f86e1d77-882a-4110-a0c4-64e1309753e3" d="M94.28,25.42a1.05,1.05,0,0,1-.27-.71.91.91,0,0,1,.19-.59l9.33-11.54H95.17a1,1,0,0,1-.7-.23.74.74,0,0,1-.23-.61.79.79,0,0,1,.26-.66,1,1,0,0,1,.71-.26h9.85a1,1,0,0,1,1,1,.92.92,0,0,1-.21.58L96.49,24h8.57a1,1,0,0,1,.69.25.86.86,0,0,1,0,1.26,1,1,0,0,1-.7.24H95A.89.89,0,0,1,94.28,25.42Z"/></svg>