<svg id="b4cbd7d1-7589-456f-9e82-b5572e54c356" data-name="Capa 1" xmlns="http://www.w3.org/2000/svg" viewBox="0 0 132.75 109.41"><defs><style>.a01fcf28-3fa8-44f0-b94f-66a1f667fc2a,.f873c068-2c0d-48b8-9cb4-bd7e89f0c771{fill:#fff;}.f4316c44-57de-4f43-bf36-f40e684bc59e{fill:#e94e1b;}.f873c068-2c0d-48b8-9cb4-bd7e89f0c771{stroke:#fff;stroke-miterlimit:10;stroke-width:0.5px;}</style></defs><path class="a01fcf28-3fa8-44f0-b94f-66a1f667fc2a" d="M66.37,45.42c3.18,0,6.29.12,9.33.34V41.39a2.66,2.66,0,1,1,5.29,0v4.5c0,.12,0,.24,0,.36,3.31.38,6.5.89,9.55,1.52V27.06L78.35,23.2,66.18,27.06V45.42Z"/><path class="f4316c44-57de-4f43-bf36-f40e684bc59e" d="M66.37,51.58c31.21,0,56.74,11,58.9,25a12.22,12.22,0,0,0,.17-1.91c0-14.85-26.45-26.88-59.07-26.88S7.31,59.78,7.31,74.63a12.22,12.22,0,0,0,.17,1.91C9.64,62.59,35.17,51.58,66.37,51.58Z"/><path class="f873c068-2c0d-48b8-9cb4-bd7e89f0c771" d="M21.14,90.2a7.76,7.76,0,0,1-3.57-3.75,1.78,1.78,0,0,1-.17-.66,1.21,1.21,0,0,1,.36-.86,1.88,1.88,0,0,1,1-.51,1.21,1.21,0,0,1,.33,0,1.86,1.86,0,0,1,1,.31,2,2,0,0,1,.7.83,4.78,4.78,0,0,0,2.32,2.16,8.35,8.35,0,0,0,3.81.88A7.32,7.32,0,0,0,31,87.44a3.52,3.52,0,0,0,1.7-3.08,4.16,4.16,0,0,0-1.44-3.18,7.35,7.35,0,0,0-4.37-1.61,11.17,11.17,0,0,1-6.35-2.37,6.2,6.2,0,0,1-2.32-4.94,5.67,5.67,0,0,1,1.19-3.6,7.39,7.39,0,0,1,3.26-2.31,12.67,12.67,0,0,1,4.65-.8,9.09,9.09,0,0,1,4.72,1.14A9.7,9.7,0,0,1,35.34,70a2.2,2.2,0,0,1,.39,1.17,1.39,1.39,0,0,1-.66,1.18,1.53,1.53,0,0,1-.84.22,1.86,1.86,0,0,1-.92-.24,1.68,1.68,0,0,1-.65-.67,6.19,6.19,0,0,0-2.2-2.23,6.58,6.58,0,0,0-3.34-.77,7.46,7.46,0,0,0-4,1,3.1,3.1,0,0,0-1.53,2.79,3.55,3.55,0,0,0,1.36,2.84q1.38,1.14,4.9,1.5a10.25,10.25,0,0,1,6.06,2.36,6.71,6.71,0,0,1,2.15,5.2,6.46,6.46,0,0,1-1.27,4,7.71,7.71,0,0,1-3.37,2.51,12.3,12.3,0,0,1-4.52.83A11.7,11.7,0,0,1,21.14,90.2Z"/><path class="f873c068-2c0d-48b8-9cb4-bd7e89f0c771" d="M41.73,90.82a1.64,1.64,0,0,1-.49-1.21V67.53a1.63,1.63,0,0,1,.49-1.22,1.66,1.66,0,0,1,1.2-.47h6.52a8.6,8.6,0,0,1,4.32,1.08,7.5,7.5,0,0,1,3,3,8.89,8.89,0,0,1,1.06,4.37,8.37,8.37,0,0,1-1.06,4.24,7.49,7.49,0,0,1-3,2.91,8.9,8.9,0,0,1-4.32,1H44.63v7.14a1.67,1.67,0,0,1-.48,1.21,1.77,1.77,0,0,1-2.42,0Zm7.72-11.48a5,5,0,0,0,3.66-1.42,4.93,4.93,0,0,0,1.43-3.64,5.31,5.31,0,0,0-1.43-3.81A4.85,4.85,0,0,0,49.45,69H44.63V79.34Z"/><path class="f873c068-2c0d-48b8-9cb4-bd7e89f0c771" d="M62,90.82a1.64,1.64,0,0,1-.49-1.21V67.53A1.63,1.63,0,0,1,62,66.31a1.69,1.69,0,0,1,2.9,1.22V89.61a1.7,1.7,0,0,1-.47,1.21,1.78,1.78,0,0,1-2.43,0Z"/><path class="f873c068-2c0d-48b8-9cb4-bd7e89f0c771" d="M72,90.82a1.64,1.64,0,0,1-.49-1.21V67.53A1.63,1.63,0,0,1,72,66.31a1.7,1.7,0,0,1,1.21-.47H87.9a1.67,1.67,0,0,1,1.2.44,1.51,1.51,0,0,1,.46,1.16,1.45,1.45,0,0,1-.46,1.11,1.7,1.7,0,0,1-1.2.42H74.85v7.92h9.36a1.68,1.68,0,0,1,1.19.44,1.47,1.47,0,0,1,.47,1.13,1.44,1.44,0,0,1-.47,1.12,1.64,1.64,0,0,1-1.19.44H74.85v8.15H87.9a1.71,1.71,0,0,1,1.2.43,1.42,1.42,0,0,1,.46,1.11,1.49,1.49,0,0,1-.46,1.15,1.63,1.63,0,0,1-1.2.44H73.16A1.67,1.67,0,0,1,72,90.82Z"/><path class="f873c068-2c0d-48b8-9cb4-bd7e89f0c771" d="M93.28,90.78a1.74,1.74,0,0,1-.46-1.2,1.65,1.65,0,0,1,.32-1l16-19.73H94.81a1.73,1.73,0,0,1-1.21-.39,1.28,1.28,0,0,1-.39-1,1.36,1.36,0,0,1,.44-1.12,1.74,1.74,0,0,1,1.22-.44H111.7a1.61,1.61,0,0,1,1.25.51,1.65,1.65,0,0,1,.48,1.18,1.54,1.54,0,0,1-.36,1l-16,19.79H111.7a1.7,1.7,0,0,1,1.19.44,1.4,1.4,0,0,1,.47,1,1.42,1.42,0,0,1-.46,1.13,1.72,1.72,0,0,1-1.2.4H94.48A1.5,1.5,0,0,1,93.28,90.78Z"/><path class="a01fcf28-3fa8-44f0-b94f-66a1f667fc2a" d="M16.19,100.61a2.77,2.77,0,0,1-.37.22,1.63,1.63,0,0,1-.44.15,2.89,2.89,0,0,1-.53,0,2,2,0,0,1-.83-.16,2.08,2.08,0,0,1-1.26-1.93h0a2.07,2.07,0,0,1,.16-.82,2.26,2.26,0,0,1,.43-.67A2.08,2.08,0,0,1,14,97a2.2,2.2,0,0,1,.86-.16,2.82,2.82,0,0,1,.52,0,2.42,2.42,0,0,1,.43.13,1.75,1.75,0,0,1,.35.2,1.81,1.81,0,0,1,.3.25l-.57.66a2.36,2.36,0,0,0-.48-.34,1.28,1.28,0,0,0-.56-.12,1.07,1.07,0,0,0-.47.1A1.26,1.26,0,0,0,14,98a1.22,1.22,0,0,0-.25.41,1.29,1.29,0,0,0-.08.49h0a1.33,1.33,0,0,0,.08.49,1.38,1.38,0,0,0,.24.41,1.15,1.15,0,0,0,.38.27,1,1,0,0,0,.47.1,1.29,1.29,0,0,0,.59-.12,2.43,2.43,0,0,0,.48-.35l.57.57A2.33,2.33,0,0,1,16.19,100.61Z"/><path class="a01fcf28-3fa8-44f0-b94f-66a1f667fc2a" d="M19,101v-.34a1.24,1.24,0,0,1-.39.29A1.31,1.31,0,0,1,18,101a1.42,1.42,0,0,1-.42-.06.88.88,0,0,1-.34-.19.86.86,0,0,1-.23-.3,1,1,0,0,1-.08-.4v0a1,1,0,0,1,.09-.44,1,1,0,0,1,.26-.31,1.17,1.17,0,0,1,.39-.18,2.1,2.1,0,0,1,.51-.06,1.76,1.76,0,0,1,.42,0,2.14,2.14,0,0,1,.34.09v0a.52.52,0,0,0-.17-.43.78.78,0,0,0-.5-.14,2,2,0,0,0-.45,0,2.32,2.32,0,0,0-.4.13l-.23-.68a4.27,4.27,0,0,1,.54-.18,3.13,3.13,0,0,1,.67-.07,1.21,1.21,0,0,1,1.39,1.34V101Zm0-1.25a.92.92,0,0,0-.25-.09,1.55,1.55,0,0,0-.31,0,.83.83,0,0,0-.45.11.35.35,0,0,0-.16.32h0a.36.36,0,0,0,.13.28.63.63,0,0,0,.35.1.76.76,0,0,0,.5-.15.48.48,0,0,0,.19-.4Z"/><path class="a01fcf28-3fa8-44f0-b94f-66a1f667fc2a" d="M20.61,101V96.72h.88V101Z"/><path class="a01fcf28-3fa8-44f0-b94f-66a1f667fc2a" d="M22.34,97.51v-.79h.93v.79Zm0,3.45V97.85h.89V101Z"/><path class="a01fcf28-3fa8-44f0-b94f-66a1f667fc2a" d="M26.32,101v-.44a1.67,1.67,0,0,1-.39.36,1.13,1.13,0,0,1-.58.14,1.4,1.4,0,0,1-.53-.11,1.25,1.25,0,0,1-.45-.31,1.41,1.41,0,0,1-.31-.5,1.85,1.85,0,0,1-.12-.69h0a1.85,1.85,0,0,1,.12-.69,1.45,1.45,0,0,1,.31-.51,1.31,1.31,0,0,1,1-.41,1.17,1.17,0,0,1,.59.14,1.5,1.5,0,0,1,.38.32V96.72h.88V101Zm0-1.56a1,1,0,0,0-.06-.36.92.92,0,0,0-.16-.27.84.84,0,0,0-.24-.18.72.72,0,0,0-.29-.06.68.68,0,0,0-.29.06.63.63,0,0,0-.24.18,1,1,0,0,0-.17.27,1,1,0,0,0-.06.36h0a1,1,0,0,0,.06.35.88.88,0,0,0,.17.28.61.61,0,0,0,.24.17.68.68,0,0,0,.29.06.72.72,0,0,0,.29-.06.81.81,0,0,0,.24-.17.85.85,0,0,0,.16-.28,1,1,0,0,0,.06-.35Z"/><path class="a01fcf28-3fa8-44f0-b94f-66a1f667fc2a" d="M29.82,101v-.34a1.24,1.24,0,0,1-.39.29,1.31,1.31,0,0,1-.55.11,1.42,1.42,0,0,1-.42-.06.88.88,0,0,1-.34-.19,1,1,0,0,1-.23-.3,1,1,0,0,1-.08-.4v0a1,1,0,0,1,.09-.44,1,1,0,0,1,.26-.31,1.17,1.17,0,0,1,.39-.18,2.1,2.1,0,0,1,.51-.06,1.76,1.76,0,0,1,.42,0,1.89,1.89,0,0,1,.34.09v0a.52.52,0,0,0-.17-.43.75.75,0,0,0-.49-.14,2,2,0,0,0-.45,0,2.41,2.41,0,0,0-.41.13l-.22-.68a4.12,4.12,0,0,1,.53-.18,3.21,3.21,0,0,1,.67-.07,1.21,1.21,0,0,1,1.39,1.34V101Zm0-1.25a.92.92,0,0,0-.25-.09,1.55,1.55,0,0,0-.31,0,.83.83,0,0,0-.45.11.38.38,0,0,0-.16.32h0a.34.34,0,0,0,.14.28.57.57,0,0,0,.34.1.81.81,0,0,0,.51-.15.5.5,0,0,0,.18-.4Z"/><path class="a01fcf28-3fa8-44f0-b94f-66a1f667fc2a" d="M33.68,101v-.44a1.67,1.67,0,0,1-.39.36,1.16,1.16,0,0,1-.58.14,1.4,1.4,0,0,1-.53-.11,1.25,1.25,0,0,1-.45-.31,1.59,1.59,0,0,1-.32-.5,1.85,1.85,0,0,1-.12-.69h0a1.85,1.85,0,0,1,.12-.69,1.62,1.62,0,0,1,.31-.51,1.31,1.31,0,0,1,1-.41,1.13,1.13,0,0,1,.58.14,1.76,1.76,0,0,1,.39.32V96.72h.88V101Zm0-1.56a1,1,0,0,0-.06-.36,1.2,1.2,0,0,0-.16-.27.84.84,0,0,0-.24-.18.73.73,0,0,0-.3-.06.72.72,0,0,0-.29.06.84.84,0,0,0-.24.18,1.24,1.24,0,0,0-.17.27,1,1,0,0,0-.06.36h0a1,1,0,0,0,.06.35,1.1,1.1,0,0,0,.17.28.81.81,0,0,0,.24.17.72.72,0,0,0,.29.06.73.73,0,0,0,.3-.06.81.81,0,0,0,.24-.17,1.08,1.08,0,0,0,.16-.28,1,1,0,0,0,.06-.35Z"/><path class="a01fcf28-3fa8-44f0-b94f-66a1f667fc2a" d="M40,99.6a.45.45,0,0,1,0,.11H37.82a.78.78,0,0,0,.26.46.8.8,0,0,0,.5.15,1,1,0,0,0,.39-.07,1.3,1.3,0,0,0,.36-.25l.51.45a1.58,1.58,0,0,1-.54.42,1.54,1.54,0,0,1-.73.16,1.71,1.71,0,0,1-.65-.12,1.36,1.36,0,0,1-.52-.33,1.52,1.52,0,0,1-.34-.51,1.67,1.67,0,0,1-.12-.65h0a1.9,1.9,0,0,1,.11-.63,1.48,1.48,0,0,1,.32-.51,1.38,1.38,0,0,1,.48-.35,1.45,1.45,0,0,1,.63-.13,1.54,1.54,0,0,1,.67.14,1.47,1.47,0,0,1,.48.37,1.71,1.71,0,0,1,.27.54,2.3,2.3,0,0,1,.09.64h0Zm-1.06-.92a.61.61,0,0,0-.45-.18.58.58,0,0,0-.45.18.83.83,0,0,0-.22.48h1.32A.81.81,0,0,0,38.93,98.68Z"/><path class="a01fcf28-3fa8-44f0-b94f-66a1f667fc2a" d="M42.62,101V99.23a.69.69,0,0,0-.14-.47.49.49,0,0,0-.4-.16.51.51,0,0,0-.4.16.65.65,0,0,0-.15.47V101h-.88V97.85h.88v.44l.17-.19a1.08,1.08,0,0,1,.2-.16.88.88,0,0,1,.24-.11,1,1,0,0,1,.3,0,1,1,0,0,1,.78.31,1.18,1.18,0,0,1,.28.85v2Z"/><path class="a01fcf28-3fa8-44f0-b94f-66a1f667fc2a" d="M46.05,101V96.72h.88V101Z"/><path class="a01fcf28-3fa8-44f0-b94f-66a1f667fc2a" d="M47.78,97.51v-.79h.93v.79Zm0,3.45V97.85h.88V101Z"/><path class="a01fcf28-3fa8-44f0-b94f-66a1f667fc2a" d="M53.38,101V99.23a.69.69,0,0,0-.13-.47.47.47,0,0,0-.39-.16.5.5,0,0,0-.39.16.69.69,0,0,0-.14.47V101h-.88V99.23a.69.69,0,0,0-.14-.47.45.45,0,0,0-.38-.16.47.47,0,0,0-.39.16.65.65,0,0,0-.14.47V101h-.89V97.85h.89v.44c.05-.06.1-.13.16-.19a1.56,1.56,0,0,1,.2-.16,1.12,1.12,0,0,1,.25-.11,1,1,0,0,1,.3,0,1,1,0,0,1,.53.13.84.84,0,0,1,.35.37,1.39,1.39,0,0,1,.45-.37,1.2,1.2,0,0,1,.57-.13,1,1,0,0,1,.77.29,1.16,1.16,0,0,1,.28.85v2Z"/><path class="a01fcf28-3fa8-44f0-b94f-66a1f667fc2a" d="M58.18,100.1a1.59,1.59,0,0,1-.32.5,1.25,1.25,0,0,1-.45.31,1.36,1.36,0,0,1-.53.11,1.11,1.11,0,0,1-.58-.14,1.55,1.55,0,0,1-.39-.32v1.33H55v-4h.88v.44a1.33,1.33,0,0,1,.39-.36,1.16,1.16,0,0,1,.58-.14,1.31,1.31,0,0,1,1,.41,1.64,1.64,0,0,1,.32.51,1.85,1.85,0,0,1,.12.69h0A1.85,1.85,0,0,1,58.18,100.1Zm-.77-.7a1,1,0,0,0-.06-.36.92.92,0,0,0-.16-.27.84.84,0,0,0-.24-.18.73.73,0,0,0-.3-.06.72.72,0,0,0-.29.06.84.84,0,0,0-.24.18A1.2,1.2,0,0,0,56,99a1,1,0,0,0-.06.36h0a1,1,0,0,0,.06.35,1.08,1.08,0,0,0,.16.28.81.81,0,0,0,.24.17.72.72,0,0,0,.29.06.73.73,0,0,0,.3-.06.81.81,0,0,0,.24-.17.92.92,0,0,0,.16-.27,1,1,0,0,0,.06-.36Z"/><path class="a01fcf28-3fa8-44f0-b94f-66a1f667fc2a" d="M59,97.51v-.79h.93v.79ZM59,101V97.85h.88V101Z"/><path class="a01fcf28-3fa8-44f0-b94f-66a1f667fc2a" d="M63.6,99.6s0,.07,0,.11H61.43a.78.78,0,0,0,.26.46.8.8,0,0,0,.5.15,1,1,0,0,0,.39-.07,1.3,1.3,0,0,0,.36-.25l.51.45a1.58,1.58,0,0,1-.54.42,1.55,1.55,0,0,1-.74.16,1.69,1.69,0,0,1-.64-.12,1.36,1.36,0,0,1-.52-.33,1.52,1.52,0,0,1-.34-.51,1.67,1.67,0,0,1-.12-.65h0a1.9,1.9,0,0,1,.11-.63,1.48,1.48,0,0,1,.32-.51,1.38,1.38,0,0,1,.48-.35,1.45,1.45,0,0,1,.63-.13,1.54,1.54,0,0,1,.67.14,1.33,1.33,0,0,1,.47.37,1.55,1.55,0,0,1,.28.54,2.3,2.3,0,0,1,.09.64h0Zm-1.07-.92a.57.57,0,0,0-.44-.18.58.58,0,0,0-.45.18.9.9,0,0,0-.23.48h1.33A.76.76,0,0,0,62.53,98.68Z"/><path class="a01fcf28-3fa8-44f0-b94f-66a1f667fc2a" d="M64.15,101v-.62l1.61-1.78H64.21v-.71h2.65v.62l-1.61,1.78h1.61V101Z"/><path class="a01fcf28-3fa8-44f0-b94f-66a1f667fc2a" d="M69.35,101v-.34a1.24,1.24,0,0,1-.39.29,1.28,1.28,0,0,1-.55.11A1.42,1.42,0,0,1,68,101a.88.88,0,0,1-.34-.19,1,1,0,0,1-.31-.7v0a1,1,0,0,1,.09-.44,1.1,1.1,0,0,1,.26-.31,1.13,1.13,0,0,1,.4-.18,2,2,0,0,1,.51-.06,1.73,1.73,0,0,1,.41,0,2.25,2.25,0,0,1,.35.09v0a.55.55,0,0,0-.17-.43.78.78,0,0,0-.5-.14,2,2,0,0,0-.45,0,2.41,2.41,0,0,0-.41.13l-.22-.68a4.72,4.72,0,0,1,.53-.18,3.23,3.23,0,0,1,.68-.07,1.21,1.21,0,0,1,1.38,1.34V101Zm0-1.25a1.14,1.14,0,0,0-.26-.09,1.55,1.55,0,0,0-.31,0,.79.79,0,0,0-.44.11.35.35,0,0,0-.16.32h0a.33.33,0,0,0,.13.28.61.61,0,0,0,.35.1.78.78,0,0,0,.5-.15.51.51,0,0,0,.19-.4Z"/><path class="a01fcf28-3fa8-44f0-b94f-66a1f667fc2a" d="M74.47,101a2.49,2.49,0,0,1-.19.4,1,1,0,0,1-.21.27.72.72,0,0,1-.27.15,1.23,1.23,0,0,1-.35,0,1.4,1.4,0,0,1-.43-.06,1.65,1.65,0,0,1-.36-.16l.3-.64a.66.66,0,0,0,.19.09l.19,0a.3.3,0,0,0,.18,0,.36.36,0,0,0,.13-.16l-1.22-3.12h.93l.71,2.12.68-2.12h.92Z"/><path class="a01fcf28-3fa8-44f0-b94f-66a1f667fc2a" d="M81.8,101V99.23a.69.69,0,0,0-.14-.47.45.45,0,0,0-.38-.16.47.47,0,0,0-.39.16.65.65,0,0,0-.14.47V101h-.89V99.23a.69.69,0,0,0-.13-.47.46.46,0,0,0-.38-.16.51.51,0,0,0-.4.16.69.69,0,0,0-.14.47V101h-.88V97.85h.88v.44L79,98.1a1.08,1.08,0,0,1,.2-.16.88.88,0,0,1,.24-.11,1.06,1.06,0,0,1,.31,0,1,1,0,0,1,.53.13.9.9,0,0,1,.35.37,1.21,1.21,0,0,1,.45-.37,1.14,1.14,0,0,1,.57-.13,1,1,0,0,1,.77.29,1.16,1.16,0,0,1,.28.85v2Z"/><path class="a01fcf28-3fa8-44f0-b94f-66a1f667fc2a" d="M85.27,101v-.34a1.24,1.24,0,0,1-.39.29,1.31,1.31,0,0,1-.55.11,1.42,1.42,0,0,1-.42-.06.88.88,0,0,1-.34-.19,1,1,0,0,1-.23-.3,1,1,0,0,1-.08-.4v0a1,1,0,0,1,.09-.44,1,1,0,0,1,.26-.31,1.17,1.17,0,0,1,.39-.18,2.1,2.1,0,0,1,.51-.06,1.76,1.76,0,0,1,.42,0,1.89,1.89,0,0,1,.34.09v0a.52.52,0,0,0-.17-.43.75.75,0,0,0-.49-.14,2,2,0,0,0-.45,0,2.41,2.41,0,0,0-.41.13l-.22-.68a4.12,4.12,0,0,1,.53-.18,3.21,3.21,0,0,1,.67-.07,1.21,1.21,0,0,1,1.39,1.34V101Zm0-1.25a.92.92,0,0,0-.25-.09,1.55,1.55,0,0,0-.31,0,.83.83,0,0,0-.45.11.38.38,0,0,0-.16.32h0a.34.34,0,0,0,.14.28.57.57,0,0,0,.34.1.81.81,0,0,0,.51-.15.5.5,0,0,0,.18-.4Z"/><path class="a01fcf28-3fa8-44f0-b94f-66a1f667fc2a" d="M88.85,101V99.23a.69.69,0,0,0-.14-.47.47.47,0,0,0-.39-.16.53.53,0,0,0-.41.16.65.65,0,0,0-.15.47V101h-.88V97.85h.88v.44l.17-.19a1.56,1.56,0,0,1,.2-.16.88.88,0,0,1,.24-.11,1,1,0,0,1,.31,0,1,1,0,0,1,.78.31,1.22,1.22,0,0,1,.27.85v2Z"/><path class="a01fcf28-3fa8-44f0-b94f-66a1f667fc2a" d="M91.94,101a1.54,1.54,0,0,1-.39.05,1.4,1.4,0,0,1-.37,0,.56.56,0,0,1-.28-.16.7.7,0,0,1-.19-.28,1.42,1.42,0,0,1-.07-.45V98.6h-.37v-.75h.37v-.8h.89v.8h.73v.75h-.73v1.33c0,.2.09.3.28.3a.87.87,0,0,0,.44-.11v.71A1.2,1.2,0,0,1,91.94,101Z"/><path class="a01fcf28-3fa8-44f0-b94f-66a1f667fc2a" d="M95.81,99.6s0,.07,0,.11H93.63a.72.72,0,0,0,.76.61,1,1,0,0,0,.4-.07,1.69,1.69,0,0,0,.36-.25l.5.45a1.46,1.46,0,0,1-.53.42,1.58,1.58,0,0,1-.74.16,1.75,1.75,0,0,1-.65-.12,1.25,1.25,0,0,1-.51-.33,1.39,1.39,0,0,1-.34-.51,1.67,1.67,0,0,1-.12-.65h0a1.67,1.67,0,0,1,.11-.63,1.34,1.34,0,0,1,.32-.51,1.3,1.3,0,0,1,.48-.35,1.44,1.44,0,0,1,.62-.13,1.59,1.59,0,0,1,.68.14,1.33,1.33,0,0,1,.47.37,1.55,1.55,0,0,1,.28.54,2.3,2.3,0,0,1,.09.64h0Zm-1.07-.92a.58.58,0,0,0-.45-.18.61.61,0,0,0-.45.18,1,1,0,0,0-.22.48H95A.89.89,0,0,0,94.74,98.68Z"/><path class="a01fcf28-3fa8-44f0-b94f-66a1f667fc2a" d="M98.43,101V99.23a.65.65,0,0,0-.14-.47.47.47,0,0,0-.39-.16.49.49,0,0,0-.4.16.65.65,0,0,0-.15.47V101h-.88V97.85h.88v.44c.05-.06.1-.13.16-.19a1.56,1.56,0,0,1,.2-.16,1.12,1.12,0,0,1,.25-.11,1,1,0,0,1,.3,0,1,1,0,0,1,.78.31,1.22,1.22,0,0,1,.28.85v2Z"/><path class="a01fcf28-3fa8-44f0-b94f-66a1f667fc2a" d="M100.1,97.51v-.79H101v.79Zm0,3.45V97.85H101V101Z"/><path class="a01fcf28-3fa8-44f0-b94f-66a1f667fc2a" d="M105.7,101V99.23a.69.69,0,0,0-.13-.47.47.47,0,0,0-.39-.16.5.5,0,0,0-.39.16.69.69,0,0,0-.14.47V101h-.88V99.23a.69.69,0,0,0-.14-.47.44.44,0,0,0-.38-.16.48.48,0,0,0-.39.16.65.65,0,0,0-.14.47V101h-.88V97.85h.88v.44c0-.06.1-.13.16-.19a1.56,1.56,0,0,1,.2-.16,1.12,1.12,0,0,1,.25-.11,1,1,0,0,1,.3,0,1,1,0,0,1,.54.13.87.87,0,0,1,.34.37,1.39,1.39,0,0,1,.45-.37,1.2,1.2,0,0,1,.57-.13,1.06,1.06,0,0,1,.78.29,1.2,1.2,0,0,1,.27.85v2Z"/><path class="a01fcf28-3fa8-44f0-b94f-66a1f667fc2a" d="M107.37,97.51v-.79h.93v.79Zm0,3.45V97.85h.88V101Z"/><path class="a01fcf28-3fa8-44f0-b94f-66a1f667fc2a" d="M112,99.6a.45.45,0,0,1,0,.11h-2.16a.78.78,0,0,0,.26.46.82.82,0,0,0,.5.15.94.94,0,0,0,.39-.07,1.3,1.3,0,0,0,.36-.25l.51.45a1.64,1.64,0,0,1-.53.42,1.58,1.58,0,0,1-.74.16,1.75,1.75,0,0,1-.65-.12,1.36,1.36,0,0,1-.52-.33,1.58,1.58,0,0,1-.46-1.16h0a1.68,1.68,0,0,1,.12-.63,1.45,1.45,0,0,1,.31-.51,1.42,1.42,0,0,1,.49-.35,1.38,1.38,0,0,1,.62-.13,1.51,1.51,0,0,1,.67.14,1.47,1.47,0,0,1,.48.37,1.73,1.73,0,0,1,.28.54,2.3,2.3,0,0,1,.09.64h0S112,99.57,112,99.6Zm-1.06-.92a.58.58,0,0,0-.45-.18.61.61,0,0,0-.45.18.89.89,0,0,0-.22.48h1.33A.89.89,0,0,0,110.94,98.68Z"/><path class="a01fcf28-3fa8-44f0-b94f-66a1f667fc2a" d="M114.63,101V99.23a.69.69,0,0,0-.14-.47.47.47,0,0,0-.39-.16.53.53,0,0,0-.41.16.65.65,0,0,0-.15.47V101h-.88V97.85h.88v.44l.17-.19a1.56,1.56,0,0,1,.2-.16.88.88,0,0,1,.24-.11,1,1,0,0,1,.31,0,1,1,0,0,1,.78.31,1.22,1.22,0,0,1,.27.85v2Z"/><path class="a01fcf28-3fa8-44f0-b94f-66a1f667fc2a" d="M117.72,101a1.48,1.48,0,0,1-.39.05,1.4,1.4,0,0,1-.37,0,.61.61,0,0,1-.28-.16.7.7,0,0,1-.19-.28,1.42,1.42,0,0,1-.07-.45V98.6h-.37v-.75h.37v-.8h.89v.8H118v.75h-.73v1.33c0,.2.09.3.28.3a.85.85,0,0,0,.44-.11v.71A1.2,1.2,0,0,1,117.72,101Z"/><path class="a01fcf28-3fa8-44f0-b94f-66a1f667fc2a" d="M121.78,100a1.68,1.68,0,0,1-.36.51,1.58,1.58,0,0,1-.53.35,1.68,1.68,0,0,1-.68.13,1.59,1.59,0,0,1-.66-.13,1.38,1.38,0,0,1-.53-.34,1.57,1.57,0,0,1-.36-.51,1.61,1.61,0,0,1-.12-.63h0a1.64,1.64,0,0,1,.12-.63,1.7,1.7,0,0,1,.89-.86,1.68,1.68,0,0,1,.68-.13,1.76,1.76,0,0,1,.66.12,1.53,1.53,0,0,1,.53.35,1.57,1.57,0,0,1,.36.51,1.61,1.61,0,0,1,.12.63h0A1.68,1.68,0,0,1,121.78,100Zm-.75-.63a.88.88,0,0,0-.06-.33.74.74,0,0,0-.16-.27,1,1,0,0,0-.26-.19.8.8,0,0,0-.34-.07.77.77,0,0,0-.34.07.72.72,0,0,0-.25.18.92.92,0,0,0-.16.27,1.14,1.14,0,0,0,0,.33h0a.88.88,0,0,0,.06.33.74.74,0,0,0,.16.27,1,1,0,0,0,.26.19.74.74,0,0,0,.34.07.77.77,0,0,0,.34-.07.72.72,0,0,0,.25-.18.92.92,0,0,0,.16-.27,1.14,1.14,0,0,0,0-.33Z"/><path class="f4316c44-57de-4f43-bf36-f40e684bc59e" d="M43.21,31h-4a2.66,2.66,0,0,1-.85-.15V48.64a116.55,116.55,0,0,1,24.33-3.16V22.1a2.85,2.85,0,0,1-.41,0h-4a2.65,2.65,0,1,1,0-5.29h4a2.85,2.85,0,0,1,.41,0V2.72H38.34V9.38a2.66,2.66,0,0,1,.85-.15h4a2.65,2.65,0,0,1,0,5.29h-4a2.66,2.66,0,0,1-.85-.15V25.89a2.66,2.66,0,0,1,.85-.15h4a2.65,2.65,0,0,1,0,5.29Z"/></svg>