<svg id="ea8e0cb3-be54-4a6e-a715-2ee8f2a66781" data-name="Capa 1" xmlns="http://www.w3.org/2000/svg" viewBox="0 0 132.75 95.06"><defs><style>.e1917002-3aab-4b91-acfe-e4c222686fea,.fd6dfa8f-c96e-4e26-9f7e-29aa99e312a5{fill:#716f6f;}.e241d96e-a734-4fb5-8e40-dd48d7c7422f{fill:#e63815;}.fd6dfa8f-c96e-4e26-9f7e-29aa99e312a5{stroke:#716f6f;stroke-miterlimit:10;stroke-width:0.5px;}</style></defs><path class="e1917002-3aab-4b91-acfe-e4c222686fea" d="M66.37,45.42c3.18,0,6.29.12,9.33.34V41.39a2.66,2.66,0,1,1,5.29,0v4.5c0,.12,0,.24,0,.36,3.31.38,6.5.89,9.55,1.52V27.06L78.35,23.2,66.18,27.06V45.42Z"/><path class="e241d96e-a734-4fb5-8e40-dd48d7c7422f" d="M66.37,51.58c31.21,0,56.74,11,58.9,25a12.22,12.22,0,0,0,.17-1.91c0-14.85-26.45-26.88-59.07-26.88S7.31,59.78,7.31,74.63a12.22,12.22,0,0,0,.17,1.91C9.64,62.59,35.17,51.58,66.37,51.58Z"/><path class="fd6dfa8f-c96e-4e26-9f7e-29aa99e312a5" d="M21.14,90.2a7.76,7.76,0,0,1-3.57-3.75,1.78,1.78,0,0,1-.17-.66,1.21,1.21,0,0,1,.36-.86,1.88,1.88,0,0,1,1-.51,1.21,1.21,0,0,1,.33,0,1.86,1.86,0,0,1,1,.31,2,2,0,0,1,.7.83,4.78,4.78,0,0,0,2.32,2.16,8.35,8.35,0,0,0,3.81.88A7.32,7.32,0,0,0,31,87.44a3.52,3.52,0,0,0,1.7-3.08,4.16,4.16,0,0,0-1.44-3.18,7.35,7.35,0,0,0-4.37-1.61,11.17,11.17,0,0,1-6.35-2.37,6.2,6.2,0,0,1-2.32-4.94,5.67,5.67,0,0,1,1.19-3.6,7.39,7.39,0,0,1,3.26-2.31,12.67,12.67,0,0,1,4.65-.8,9.09,9.09,0,0,1,4.72,1.14A9.7,9.7,0,0,1,35.34,70a2.2,2.2,0,0,1,.39,1.17,1.39,1.39,0,0,1-.66,1.18,1.53,1.53,0,0,1-.84.22,1.86,1.86,0,0,1-.92-.24,1.68,1.68,0,0,1-.65-.67,6.19,6.19,0,0,0-2.2-2.23,6.58,6.58,0,0,0-3.34-.77,7.46,7.46,0,0,0-4,1,3.1,3.1,0,0,0-1.53,2.79,3.55,3.55,0,0,0,1.36,2.84q1.38,1.14,4.9,1.5a10.25,10.25,0,0,1,6.06,2.36,6.71,6.71,0,0,1,2.15,5.2,6.46,6.46,0,0,1-1.27,4,7.71,7.71,0,0,1-3.37,2.51,12.3,12.3,0,0,1-4.52.83A11.7,11.7,0,0,1,21.14,90.2Z"/><path class="fd6dfa8f-c96e-4e26-9f7e-29aa99e312a5" d="M41.73,90.82a1.64,1.64,0,0,1-.49-1.21V67.53a1.63,1.63,0,0,1,.49-1.22,1.66,1.66,0,0,1,1.2-.47h6.52a8.6,8.6,0,0,1,4.32,1.08,7.5,7.5,0,0,1,3,3,8.89,8.89,0,0,1,1.06,4.37,8.37,8.37,0,0,1-1.06,4.24,7.49,7.49,0,0,1-3,2.91,8.9,8.9,0,0,1-4.32,1H44.63v7.14a1.67,1.67,0,0,1-.48,1.21,1.77,1.77,0,0,1-2.42,0Zm7.72-11.48a5,5,0,0,0,3.66-1.42,4.93,4.93,0,0,0,1.43-3.64,5.31,5.31,0,0,0-1.43-3.81A4.85,4.85,0,0,0,49.45,69H44.63V79.34Z"/><path class="fd6dfa8f-c96e-4e26-9f7e-29aa99e312a5" d="M62,90.82a1.64,1.64,0,0,1-.49-1.21V67.53A1.63,1.63,0,0,1,62,66.31a1.68,1.68,0,0,1,1.2-.47,1.61,1.61,0,0,1,1.7,1.69V89.61a1.7,1.7,0,0,1-.47,1.21,1.67,1.67,0,0,1-1.23.48A1.64,1.64,0,0,1,62,90.82Z"/><path class="fd6dfa8f-c96e-4e26-9f7e-29aa99e312a5" d="M72,90.82a1.64,1.64,0,0,1-.49-1.21V67.53A1.63,1.63,0,0,1,72,66.31a1.7,1.7,0,0,1,1.21-.47H87.9a1.67,1.67,0,0,1,1.2.44,1.51,1.51,0,0,1,.46,1.16,1.45,1.45,0,0,1-.46,1.11,1.7,1.7,0,0,1-1.2.42H74.85v7.92h9.36a1.68,1.68,0,0,1,1.19.44,1.47,1.47,0,0,1,.47,1.13,1.44,1.44,0,0,1-.47,1.12,1.64,1.64,0,0,1-1.19.44H74.85v8.15H87.9a1.71,1.71,0,0,1,1.2.43,1.42,1.42,0,0,1,.46,1.11,1.49,1.49,0,0,1-.46,1.15,1.63,1.63,0,0,1-1.2.44H73.16A1.67,1.67,0,0,1,72,90.82Z"/><path class="fd6dfa8f-c96e-4e26-9f7e-29aa99e312a5" d="M93.28,90.78a1.74,1.74,0,0,1-.46-1.2,1.65,1.65,0,0,1,.32-1l16-19.73H94.81a1.73,1.73,0,0,1-1.21-.39,1.28,1.28,0,0,1-.39-1,1.36,1.36,0,0,1,.44-1.12,1.74,1.74,0,0,1,1.22-.44H111.7a1.61,1.61,0,0,1,1.25.51,1.65,1.65,0,0,1,.48,1.18,1.54,1.54,0,0,1-.36,1l-16,19.79H111.7a1.7,1.7,0,0,1,1.19.44,1.4,1.4,0,0,1,.47,1,1.42,1.42,0,0,1-.46,1.13,1.72,1.72,0,0,1-1.2.4H94.48A1.5,1.5,0,0,1,93.28,90.78Z"/><path class="e241d96e-a734-4fb5-8e40-dd48d7c7422f" d="M43.21,31h-4a2.66,2.66,0,0,1-.85-.15V48.64a116.55,116.55,0,0,1,24.33-3.16V22.1a2.85,2.85,0,0,1-.41,0h-4a2.65,2.65,0,1,1,0-5.29h4a2.85,2.85,0,0,1,.41,0V2.72H38.34V9.38a2.66,2.66,0,0,1,.85-.15h4a2.65,2.65,0,0,1,0,5.29h-4a2.66,2.66,0,0,1-.85-.15V25.89a2.66,2.66,0,0,1,.85-.15h4a2.65,2.65,0,0,1,0,5.29Z"/></svg>